<svg width="16" height="16" viewBox="0 0 16 16" fill="none" xmlns="http://www.w3.org/2000/svg">
<g clip-path="url(#clip0_924_357)">
<path d="M8.13533 12.6963C8.26858 12.6411 8.35486 12.5122 8.35486 12.3686C8.35486 12.1731 8.1954 12.0137 7.99991 12.0137C7.85574 12.0137 7.72742 12.0994 7.67226 12.2326C7.61711 12.3659 7.64714 12.5177 7.74926 12.6193C7.85138 12.7214 8.00264 12.7514 8.13588 12.6963H8.13533Z" fill="#121229"/>
<path d="M11.6302 12.6963C11.7634 12.6411 11.8497 12.5122 11.8497 12.3686C11.8497 12.1731 11.6903 12.0137 11.4948 12.0137C11.3506 12.0137 11.2223 12.0994 11.1671 12.2326C11.112 12.3659 11.142 12.5177 11.2441 12.6193C11.3462 12.7214 11.4975 12.7514 11.6308 12.6963H11.6302Z" fill="#121229"/>
<path d="M4.64046 9.20213C4.7737 9.14697 4.85998 9.0181 4.85998 8.87448C4.85998 8.67899 4.70053 8.51953 4.50503 8.51953C4.36087 8.51953 4.23254 8.60526 4.17739 8.73851C4.12224 8.87175 4.15227 9.02356 4.25439 9.12513C4.3565 9.22724 4.50777 9.25728 4.64101 9.20213H4.64046Z" fill="#121229"/>
<path d="M8.13533 9.20213C8.26858 9.14697 8.35486 9.0181 8.35486 8.87448C8.35486 8.67899 8.1954 8.51953 7.99991 8.51953C7.85574 8.51953 7.72742 8.60526 7.67226 8.73851C7.61711 8.87175 7.64714 9.02356 7.74926 9.12513C7.85138 9.22724 8.00264 9.25728 8.13588 9.20213H8.13533Z" fill="#121229"/>
<path d="M4.64046 12.6963C4.7737 12.6411 4.85998 12.5122 4.85998 12.3686C4.85998 12.1731 4.70053 12.0137 4.50503 12.0137C4.36087 12.0137 4.23254 12.0994 4.17739 12.2326C4.12224 12.3659 4.15227 12.5177 4.25439 12.6193C4.3565 12.7214 4.50777 12.7514 4.64101 12.6963H4.64046Z" fill="#121229"/>
<path d="M12.3681 0.87372H11.6314V0.136519C11.6314 0.0611604 11.5702 0 11.4949 0C11.4195 0 11.3584 0.0611604 11.3584 0.136519V0.87372H4.64164V0.136519C4.64164 0.0611604 4.58048 0 4.50512 0C4.42976 0 4.3686 0.0611604 4.3686 0.136519V0.87372H3.6314C1.63167 0.876451 0.00273038 2.50594 0 4.50567V12.3686C0.00273038 14.3678 1.63167 15.9973 3.63195 16H12.3686C14.3678 15.9973 15.9973 14.3678 16 12.3681V4.50512C15.9973 2.50594 14.3678 0.876451 12.3681 0.87372ZM15.727 12.3686C15.7248 14.2187 14.2187 15.7248 12.3691 15.727H3.6314C1.7813 15.7248 0.275222 14.2182 0.273038 12.3691V5.51536H15.727V12.3686ZM15.727 5.24232H0.273038V4.50512C0.275222 2.65502 1.7813 1.14894 3.63085 1.14676H4.3686V2.75768C4.3686 2.83304 4.42976 2.8942 4.50512 2.8942C4.58048 2.8942 4.64164 2.83304 4.64164 2.75768V1.14676H11.3584V2.75768C11.3584 2.83304 11.4195 2.8942 11.4949 2.8942C11.5702 2.8942 11.6314 2.83304 11.6314 2.75768V1.14676H12.3686C14.2187 1.14894 15.7248 2.65502 15.727 4.50457V5.24232Z" fill="#121229"/>
<path d="M11.6302 9.20213C11.7634 9.14697 11.8497 9.0181 11.8497 8.87448C11.8497 8.67899 11.6903 8.51953 11.4948 8.51953C11.3506 8.51953 11.2223 8.60526 11.1671 8.73851C11.112 8.87175 11.142 9.02356 11.2441 9.12513C11.3462 9.22724 11.4975 9.25728 11.6308 9.20213H11.6302Z" fill="#121229"/>
</g>
<defs>
<clipPath id="clip0_924_357">
<rect width="16" height="16" fill="white"/>
</clipPath>
</defs>
</svg>
