<svg width="40" height="73" viewBox="0 0 40 73" fill="none" xmlns="http://www.w3.org/2000/svg">
<g clip-path="url(#clip0_1030_540)">
<path d="M20.0002 71.8753C18.7002 71.8753 17.6287 70.8383 17.6287 69.5457V65.5969H13.6573C12.3573 65.5827 11.3145 64.5315 11.3145 63.2389C11.3145 61.9463 12.3573 60.8952 13.6573 60.8809H17.6287V56.9321C17.643 55.6395 18.7002 54.6025 20.0002 54.6025C21.3002 54.6025 22.3573 55.6395 22.3716 56.9321V60.8809H26.343C27.643 60.8952 28.6859 61.9463 28.6859 63.2389C28.6859 64.5315 27.643 65.5827 26.343 65.5969H22.3716V69.5457C22.3716 70.8383 21.3002 71.8895 20.0002 71.8753ZM13.643 61.648C12.7716 61.6622 12.0859 62.3582 12.0859 63.2247C12.0859 64.0912 12.7859 64.7872 13.643 64.8014H18.0145C18.1145 64.8014 18.2145 64.844 18.3002 64.915C18.3716 64.9861 18.4145 65.0855 18.4145 65.1991V69.5457C18.4287 70.4122 19.1287 71.094 20.0002 71.094C20.8716 71.094 21.5716 70.398 21.5859 69.5457V65.1991C21.5859 65.0997 21.6287 65.0003 21.7002 64.915C21.7716 64.844 21.8716 64.8014 21.9859 64.8014H26.3573C27.2287 64.7872 27.9145 64.0912 27.9145 63.2247C27.9145 62.3582 27.2145 61.6622 26.3573 61.648H21.9859C21.8859 61.648 21.7859 61.6054 21.7002 61.5344C21.6287 61.4633 21.5859 61.3639 21.5859 61.2503V56.9037C21.5716 56.0372 20.8716 55.3554 20.0002 55.3554C19.1287 55.3554 18.4287 56.0514 18.4145 56.9037V61.2503C18.4145 61.3497 18.3716 61.4491 18.3002 61.5344C18.2287 61.6054 18.1287 61.648 18.0145 61.648H13.643Z" fill="#415DA1"/>
<path d="M40 19.8864C40 9.54545 32.0143 1.02273 21.8429 0.0852273C21.8143 0.0852273 21.7714 0.0852273 21.7429 0.0710227C21.1714 0.0142045 20.5857 0 19.9857 0C17.0571 0 14.2429 0.610795 11.6143 1.81818C10.9 2.14489 10.5857 2.99716 10.9143 3.70739C11.2429 4.41761 12.1 4.73011 12.8143 4.40341C13.6429 4.01989 14.4857 3.72159 15.3429 3.48011C16.4714 4.13352 17.1 5.07102 17.1857 6.20739C17.2857 7.62784 16.4857 9.09091 15.1714 9.95739C14.8143 10.1847 14.5714 10.5682 14.5286 10.9943C14.4857 11.4205 14.6286 11.8466 14.9429 12.1449C16.3 13.4943 18.0857 14.233 20 14.233C23.9429 14.233 27.1571 11.0369 27.1571 7.11648C27.1571 6.06534 26.9429 5.05682 26.5571 4.13352C32.7714 6.70455 37.1429 12.7841 37.1429 19.8864C37.1429 29.2898 29.4571 36.9318 20 36.9318C10.5429 36.9318 2.85714 29.2898 2.85714 19.8864C2.85714 17.4006 3.38571 15 4.42857 12.7557C4.75714 12.0455 4.44286 11.1932 3.72857 10.8665C3.01429 10.5398 2.15714 10.8523 1.82857 11.5625C0.614286 14.1903 0 16.9886 0 19.8864C0 23.3523 0.9 26.6051 2.47143 29.446C1.78571 31.3778 1.44286 33.4091 1.42857 35.4688V54.2614C1.42857 64.446 9.75714 72.7273 20 72.7273C30.2429 72.7273 38.5714 64.446 38.5714 54.2614V35.5114C38.5714 33.4375 38.2286 31.392 37.5286 29.446C39.1 26.6051 40 23.3381 40 19.8864ZM24.3 7.11648C24.3 9.47443 22.3714 11.392 20 11.392C19.3857 11.392 18.8 11.2642 18.2571 11.0227C19.4857 9.63068 20.1714 7.8125 20.0429 6.02273C19.9571 4.87216 19.5714 3.79261 18.8857 2.88352C19.2571 2.85511 19.6286 2.84091 20 2.84091C20.4714 2.84091 20.9571 2.85511 21.4143 2.89773C23.1429 3.40909 24.3 5.08523 24.3 7.11648ZM35.7143 35.5114V52.8125C35.1857 52.7983 34.6714 52.7699 34.1429 52.7273C33.3571 52.6705 32.6714 53.2528 32.6143 54.0341C32.5571 54.8153 33.1429 55.4972 33.9286 55.554C34.5 55.5966 35.0714 55.625 35.6429 55.6392C34.9286 63.608 28.1857 69.8722 19.9857 69.8722C11.3143 69.8722 4.27143 62.8693 4.27143 54.2472V41.4631C7.71429 45.8239 13.8429 50.0568 20.9714 52.7131C21.1429 52.7699 21.3 52.7983 21.4714 52.7983C22.0571 52.7983 22.6 52.4432 22.8143 51.875C23.0857 51.1364 22.7143 50.3267 21.9714 50.0426C11.5429 46.179 5.11429 39.6307 4.27143 35.3693C4.28571 34.4034 4.37143 33.4517 4.55714 32.5142C8.22857 36.9318 13.7857 39.7585 19.9857 39.7585C26.1857 39.7585 31.7429 36.9318 35.4143 32.5142C35.6143 33.5085 35.7143 34.5028 35.7143 35.5114Z" fill="#415DA1"/>
<path d="M13.7572 21.5054C14.5429 21.5054 15.3286 21.2923 16.0001 20.9088C16.6858 20.5111 16.9144 19.6446 16.5286 18.9628C16.1286 18.2809 15.2572 18.0537 14.5715 18.4372C14.0715 18.7213 13.4286 18.7213 12.9286 18.4372C12.2429 18.0395 11.3715 18.2809 10.9715 18.9628C10.5715 19.6446 10.8144 20.5111 11.5001 20.9088C12.1858 21.3065 12.9715 21.5054 13.7572 21.5054Z" fill="#415DA1"/>
<path d="M26.243 21.5054C27.0288 21.5054 27.8145 21.2923 28.4859 20.9088C29.1716 20.5111 29.4002 19.6446 29.0145 18.9628C28.6145 18.2809 27.743 18.0537 27.0573 18.4372C26.5573 18.7213 25.9145 18.7213 25.4145 18.4372C24.7288 18.0395 23.8573 18.2809 23.4573 18.9628C23.0573 19.6446 23.3002 20.5111 23.9859 20.9088C24.6859 21.3065 25.4573 21.5054 26.243 21.5054Z" fill="#415DA1"/>
<path d="M20.0003 28.749C21.0289 28.749 22.0146 28.3797 22.786 27.7121C23.386 27.2007 23.4432 26.2916 22.9146 25.7093C22.4003 25.1127 21.486 25.0558 20.9003 25.5814C20.6574 25.7945 20.3289 25.9223 20.0003 25.9223C19.6717 25.9223 19.3432 25.8087 19.1003 25.5814C18.5003 25.0701 17.6003 25.1269 17.086 25.7093C16.5717 26.3058 16.6289 27.2007 17.2146 27.7121C17.986 28.3797 18.9717 28.749 20.0003 28.749Z" fill="#415DA1"/>
<path d="M27.9426 51.8178C27.1712 51.6615 26.4141 52.1587 26.2569 52.9257C26.0998 53.6928 26.5998 54.4456 27.3712 54.6019C27.4712 54.6161 27.5569 54.6303 27.6569 54.6303C28.3283 54.6303 28.914 54.1615 29.0569 53.4939C29.214 52.7127 28.7141 51.9598 27.9426 51.8178Z" fill="#415DA1"/>
<path d="M6.87154 8.23848C7.25725 8.23848 7.64297 8.08223 7.92868 7.76973C8.45725 7.18734 8.4144 6.29246 7.82868 5.76689C7.24297 5.24132 6.34297 5.28393 5.8144 5.86632C5.28583 6.44871 5.32868 7.34359 5.9144 7.86916C6.18583 8.12484 6.52868 8.23848 6.87154 8.23848Z" fill="#415DA1"/>
</g>
<defs>
<clipPath id="clip0_1030_540">
<rect width="40" height="72.7273" fill="white"/>
</clipPath>
</defs>
</svg>
