<svg width="40" height="49" viewBox="0 0 40 49" fill="none" xmlns="http://www.w3.org/2000/svg">
<g clip-path="url(#clip0_803_430)">
<path d="M39.2738 44.0564L33.3846 42.7596L31.5592 48.5214C31.428 48.9354 30.8662 48.9965 30.6496 48.6195L23.3643 35.9634C26.9528 35.1863 30.1464 33.343 32.5974 30.7812L39.8127 43.3176C40.0292 43.6934 39.6967 44.1481 39.2725 44.0551L39.2738 44.0564Z" fill="#FD646F"/>
<path d="M39.2739 44.0564L33.8306 42.8577C33.5783 42.8016 33.3248 42.9481 33.2471 43.194L31.5592 48.5214C31.428 48.9354 30.8675 48.9965 30.6497 48.6195L24.4076 37.7762L23.363 35.9634C26.9516 35.1851 30.1452 33.343 32.5962 30.7812L33.6318 32.58L39.8114 43.3176C40.0267 43.6946 39.6942 44.1481 39.2713 44.0551L39.2739 44.0564Z" fill="#FD646F"/>
<path d="M39.2738 44.0561L33.8305 42.8586C33.5783 42.8038 33.3248 42.9491 33.2471 43.1949L33.8331 41.3746C33.912 41.1287 34.1643 40.9835 34.4178 41.0408L39.1006 42.0816L39.814 43.3198C40.0305 43.6956 39.6968 44.1503 39.2738 44.0561Z" fill="#FC4755"/>
<path d="M16.749 35.8126L9.349 48.6661C9.13244 49.0432 8.57066 48.982 8.43945 48.568L6.75155 43.2406C6.67384 42.9948 6.42034 42.8483 6.16811 42.9043L0.724797 44.1018C0.300593 44.1948 -0.0318912 43.7413 0.184669 43.3642L7.06747 31.4062C9.6369 33.8419 13.1031 35.2126 16.749 35.8126Z" fill="#FD646F"/>
<path d="M8.04198 33.1863L1.90822 43.8411L0.724778 44.1022C0.301848 44.1952 -0.0319096 43.7417 0.184651 43.3646L6.04325 33.185L7.62796 30.4258C8.05471 30.8296 8.50057 31.213 8.96554 31.5736L8.04198 33.185V33.1863Z" fill="#FC4755"/>
<path d="M10.0713 47.4114L9.34898 48.6662C9.13242 49.0433 8.57191 48.9834 8.43943 48.5681L6.75153 43.2407C6.67382 42.9936 6.42032 42.8484 6.16809 42.9032L8.03433 42.493C8.28656 42.4382 8.54007 42.5834 8.61777 42.8293L10.0713 47.4102V47.4114Z" fill="#FC4755"/>
<path d="M7.23436 31.1035L12.1019 33.2984L16.749 35.8131L15.5032 37.9761C12.028 37.2704 8.80379 35.6538 6.1401 33.2717C6.10825 33.2436 6.0764 33.2156 6.04456 33.1863L7.23564 31.1035H7.23436Z" fill="#FC4755"/>
<path d="M33.6355 32.5829L32.5999 30.7842L27.1171 33.2046L23.3655 35.9663L23.7871 36.6988L24.8228 38.4976L30.6508 48.6224C30.8674 48.9995 31.4292 48.9383 31.5604 48.5243L31.9311 47.3523L26.1375 37.2619C28.9425 36.2861 31.4941 34.6988 33.6343 32.5842L33.6355 32.5829Z" fill="#FC4755"/>
<path d="M38.1325 18.1873C38.1325 23.0752 36.2089 27.5146 33.079 30.7834C30.6267 33.3439 27.4344 35.1873 23.8458 35.9656C22.6063 36.2344 21.3197 36.3758 20 36.3758C18.9923 36.3758 18.0051 36.2943 17.0433 36.135C13.5847 35.5656 10.4547 34.014 7.94774 31.7758C7.81143 31.6548 7.67895 31.5325 7.54774 31.4076C7.08022 30.9643 6.63691 30.4968 6.21653 30.0064C5.81398 29.5363 5.43691 29.0433 5.08405 28.5325C4.02545 27 3.19487 25.2955 2.64201 23.4701C2.13755 21.7987 1.86621 20.0255 1.86621 18.1885C1.86748 8.14268 9.98596 0 20 0C21.8318 0 23.6 0.272611 25.2649 0.779618C27.0866 1.33248 28.7847 2.16433 30.3133 3.22803C30.8229 3.58217 31.3133 3.96051 31.7821 4.36433C32.4102 4.90191 32.9987 5.48153 33.5477 6.09936C36.4 9.31338 38.1325 13.5478 38.1325 18.1885V18.1873Z" fill="#FAA515"/>
<path d="M32.9872 18.1869C32.9872 25.3818 27.1732 31.2137 20 31.2137C12.8267 31.2137 7.0127 25.3818 7.0127 18.1869C7.0127 10.992 12.8267 5.16016 20 5.16016C27.1732 5.16016 32.9872 10.992 32.9872 18.1869Z" fill="#FAD207"/>
<path d="M32.9872 18.1868C32.9872 25.3805 27.1719 31.2136 20 31.2136C12.828 31.2136 7.0127 25.3805 7.0127 18.1868C7.0127 17.6429 7.04582 17.1078 7.11078 16.583C7.89805 23.0212 13.3694 28.0059 20 28.0059C26.6305 28.0059 32.1019 23.0225 32.8891 16.583C32.9541 17.1078 32.9872 17.6429 32.9872 18.1868Z" fill="#FAA515"/>
<path fill-rule="evenodd" clip-rule="evenodd" d="M20 5.16016C12.8267 5.16016 7.0127 10.9933 7.0127 18.1869C7.0127 25.3805 12.8267 31.2137 20 31.2137C27.1732 31.2137 32.9872 25.3805 32.9872 18.1869C32.9872 10.9933 27.1719 5.16016 20 5.16016ZM20 29.7105C13.6649 29.7105 8.51078 24.541 8.51078 18.1869C8.51078 11.8328 13.6649 6.66334 20 6.66334C26.335 6.66334 31.4879 11.8328 31.4879 18.1869C31.4879 24.541 26.335 29.7105 20 29.7105Z" fill="#FAF063"/>
<path d="M20.4484 10.9831L22.2331 14.6276C22.3057 14.7767 22.4471 14.8799 22.6115 14.9028L26.6204 15.4786C27.0306 15.5372 27.1949 16.0417 26.8981 16.3308L23.9898 19.1627C23.8714 19.2773 23.8178 19.4429 23.8459 19.606L24.5389 23.6098C24.6102 24.0187 24.1796 24.3308 23.8128 24.1359L20.2344 22.2391C20.0879 22.1614 19.9134 22.1614 19.7669 22.2391L16.1885 24.1359C15.8217 24.3308 15.3924 24.0187 15.4624 23.6098L16.1554 19.606C16.1835 19.4442 16.1299 19.2786 16.0115 19.1627L13.1032 16.3308C12.8064 16.0417 12.9707 15.5372 13.3809 15.4786L17.3911 14.9028C17.5542 14.8799 17.6956 14.7767 17.7694 14.6276L19.5529 10.9831C19.735 10.6098 20.2675 10.6098 20.4497 10.9831H20.4484Z" fill="#FAA515"/>
</g>
<defs>
<clipPath id="clip0_803_430">
<rect width="40" height="48.9172" fill="white"/>
</clipPath>
</defs>
</svg>
