<svg width="26" height="26" viewBox="0 0 26 26" fill="none" xmlns="http://www.w3.org/2000/svg">
<path d="M25.8555 5.57422C24.9141 5.99219 23.9023 6.27344 22.8398 6.40234C23.9219 5.75 24.7578 4.72266 25.1484 3.49609C24.1328 4.09766 23.0078 4.53516 21.8125 4.76953C20.8555 3.75 19.4922 3.11328 17.9805 3.11328C15.082 3.11328 12.7305 5.46484 12.7305 8.36328C12.7305 8.77344 12.7773 9.17578 12.8672 9.55859C8.50391 9.33984 4.63672 7.24609 2.04688 4.07031C1.59375 4.84766 1.33594 5.75 1.33594 6.71484C1.33594 8.53516 2.26172 10.1406 3.67188 11.082C2.80859 11.0547 2 10.8203 1.29297 10.4258C1.29297 10.4492 1.29297 10.4688 1.29297 10.4922C1.29297 13.0352 3.10156 15.1562 5.50391 15.6406C5.0625 15.7617 4.60156 15.8242 4.12109 15.8242C3.78125 15.8242 3.45312 15.793 3.13281 15.7305C3.80078 17.8125 5.73828 19.3359 8.03516 19.375C6.24219 20.7852 3.97656 21.6211 1.51562 21.6211C1.08984 21.6211 0.675781 21.5977 0.265625 21.5508C2.58594 23.0391 5.34766 23.9062 8.3125 23.9062C17.9688 23.9062 23.25 15.9063 23.25 8.97266C23.25 8.74219 23.2461 8.51563 23.2344 8.28906C24.2617 7.55469 25.1523 6.62891 25.8555 5.57422Z" fill="white"/>
</svg>
