<svg width="80" height="72" viewBox="0 0 80 72" fill="none" xmlns="http://www.w3.org/2000/svg">
<g clip-path="url(#clip0_1030_561)">
<path d="M2.90989 48.4674C2.70417 49.5668 4.16889 50.1609 4.78605 49.2228C6.02201 47.3467 8.24213 46.4086 10.4392 46.82C11.5369 47.0257 12.1327 45.561 11.1946 44.9439C9.31845 43.7079 8.38037 41.4878 8.79181 39.2907C8.99753 38.1914 7.53281 37.5972 6.91565 38.5353C5.67969 40.4115 3.45957 41.3496 1.2625 40.9381C0.16478 40.7324 -0.430982 42.1971 0.507096 42.8143C2.38325 44.0502 3.34437 46.2703 2.90989 48.4674ZM6.75437 41.6705C6.96009 42.7912 7.41761 43.8676 8.08249 44.8056C6.96173 45.0113 5.88541 45.4689 4.94733 46.1338C4.74161 45.013 4.2841 43.9367 3.61921 42.9986C4.76301 42.7929 5.83933 42.3354 6.75437 41.6705Z" fill="#415DA1" stroke="#415DA1" stroke-width="0.5" stroke-miterlimit="10"/>
<path d="M79.1214 8.64665C75.1848 7.86821 72.1187 4.80218 71.3403 0.865537C71.1115 -0.233825 69.5316 -0.233825 69.3259 0.865537C68.9144 2.99349 67.792 4.91573 66.1677 6.35741C62.8729 4.93877 58.9593 4.84661 54.496 6.05953C51.1551 6.97457 49.3925 8.07393 47.5394 9.21773C46.0977 10.1558 44.5639 10.9803 42.9856 11.6436C42.9165 11.6666 42.8704 11.6896 42.8029 11.7357C42.3454 11.4839 41.7957 11.163 41.1786 10.8207C38.0895 9.03505 33.4205 6.33437 29.4608 5.80938C20.8322 4.66558 14.2409 8.51005 11.8151 16.0624C9.5028 23.3169 11.9303 31.488 17.2395 34.3023C20.7861 36.1784 22.7314 37.3683 23.4868 38.6043C24.1961 39.7481 24.0595 41.2819 23.8307 44.0517C23.7846 44.5323 23.7386 45.0589 23.6941 45.6086C23.3502 50.1393 23.602 54.8083 24.4034 58.745C25.4106 63.6888 27.1963 67.5103 29.7126 70.1188C30.7429 71.1721 32.3672 71.4469 33.6953 70.759C35.0235 70.0727 35.7558 68.631 35.481 67.1663C35.3888 66.2973 33.9241 49.8645 40.9284 41.351C41.432 40.7553 42.1874 40.413 42.9659 40.413C43.7443 40.413 44.4997 40.78 44.9803 41.3741C51.8463 49.9336 50.4047 66.2973 50.3125 67.1893C50.1298 68.1735 50.4047 69.1577 51.0449 69.913C51.6851 70.6684 52.6248 71.1029 53.6073 71.0799C53.9957 71.0799 54.3627 71.0108 54.7281 70.8972C55.2317 70.7606 55.6892 70.4858 56.0776 70.1418C58.5956 67.5333 60.4026 63.7102 61.3868 58.768C62.1882 54.8083 62.44 50.1393 62.0961 45.6316C62.05 45.0819 62.0039 44.5553 61.9595 44.0747C61.7307 41.2819 61.5941 39.7497 62.3035 38.6273C63.0589 37.3914 65.0041 36.2015 68.5507 34.3253C71.411 32.8145 73.5406 29.5658 74.3866 25.4004C75.165 21.6234 74.798 17.5271 73.4024 14.0941C74.8441 12.3315 76.8585 11.1416 79.1016 10.6841C80.2454 10.4553 80.2454 8.87541 79.1247 8.64665H79.1214ZM72.3936 24.9643C71.6612 28.5109 69.9216 31.2576 67.611 32.4706C59.6242 36.7051 59.3724 37.7106 59.9221 44.2113C59.9681 44.6919 60.0142 45.1955 60.0373 45.7452C60.9523 57.5765 57.8171 65.3362 54.6129 68.6771C54.4532 68.7923 54.2689 68.8828 54.0632 68.9289C53.423 69.1576 52.7137 68.8828 52.4388 68.2657C52.3236 68.0139 52.3022 67.7621 52.3467 67.4872C52.3467 67.4642 52.3467 67.4411 52.3697 67.3951C52.6445 64.0542 52.6445 60.6903 52.3697 57.3477C51.7295 49.8415 49.7842 44.0287 46.603 40.0459C45.711 38.9466 44.3829 38.3294 42.9873 38.3064C41.5917 38.3064 40.2405 38.9235 39.3485 39.9999C36.0981 43.9595 34.1298 49.7723 33.4666 57.3017C33.1687 60.6656 33.1687 64.0295 33.4436 67.372C33.4436 67.3951 33.4436 67.4181 33.4666 67.4642C33.5127 67.716 33.4896 67.9908 33.3744 68.2426C33.0765 68.8598 32.3672 69.1346 31.727 68.9059C31.5444 68.8598 31.3617 68.7693 31.2004 68.6541C27.9731 65.3132 24.861 57.5551 25.7529 45.7221C25.799 45.1725 25.8451 44.6458 25.8895 44.1653C26.4392 37.6432 26.2105 36.659 18.2006 32.4245C16.0496 31.2807 14.4236 29.0145 13.5777 25.9929C12.7532 22.9268 12.8223 19.6765 13.7834 16.6318C14.7906 13.4967 18.2928 6.35577 29.186 7.79744C32.7556 8.278 37.1959 10.8421 40.1483 12.557C41.0403 13.0606 41.7957 13.5181 42.3685 13.7929C45.1152 15.1655 49.2115 16.882 53.2847 16.0822C53.8344 15.967 54.1998 15.442 54.1093 14.8692C53.994 14.3196 53.4691 13.9542 52.8963 14.0447C50.7223 14.4792 48.2504 14.0678 45.2518 12.8318C46.4187 12.2591 47.5411 11.6189 48.6157 10.9096C50.4244 9.7888 51.9797 8.82768 55.0473 7.98012C58.4573 7.04204 61.4789 6.97292 64.0644 7.72832C63.2629 8.11672 62.44 8.4146 61.5694 8.57588C60.4717 8.80464 60.4717 10.3846 61.5694 10.5903C65.5061 11.3687 68.5721 14.4348 69.3506 18.3714C69.5793 19.4708 71.1592 19.4708 71.365 18.3714C71.5016 17.639 71.7303 16.9297 72.0512 16.2434C72.8527 19.1268 72.9663 22.1023 72.3952 24.9626L72.3936 24.9643ZM70.3561 15.0782C69.1893 12.7215 67.2901 10.8207 64.9548 9.67689C67.3115 8.51005 69.2123 6.61086 70.3561 4.27553C71.523 6.63225 73.4221 8.53309 75.7575 9.67689C73.4008 10.8207 71.4999 12.7215 70.3561 15.0782Z" fill="#415DA1" stroke="#415DA1" stroke-width="0.5" stroke-miterlimit="10"/>
<path d="M19.2966 56.5467C16.0232 55.9065 13.4608 53.3424 12.8206 50.0706C12.5918 48.9713 11.0119 48.9713 10.8062 50.0706C10.166 53.344 7.60188 55.9065 4.33012 56.5467C3.23241 56.7754 3.23241 58.3553 4.33012 58.561C7.60352 59.2012 10.166 61.7653 10.8062 65.0371C11.0349 66.1364 12.6148 66.1364 12.8206 65.0371C13.4608 61.7637 16.0248 59.2012 19.2966 58.561C20.3943 58.3553 20.3943 56.7754 19.2966 56.5467ZM11.8134 61.8098C10.8522 60.0011 9.36448 58.515 7.5558 57.5522C9.36448 56.5911 10.8506 55.1033 11.8134 53.2946C12.7745 55.1033 14.2622 56.5894 16.0709 57.5522C14.2622 58.5133 12.7761 60.0011 11.8134 61.8098Z" fill="#415DA1" stroke="#415DA1" stroke-width="0.5" stroke-miterlimit="10"/>
</g>
<defs>
<clipPath id="clip0_1030_561">
<rect width="80" height="71.1771" fill="white"/>
</clipPath>
</defs>
</svg>
