<svg width="16" height="16" viewBox="0 0 16 16" fill="none" xmlns="http://www.w3.org/2000/svg">
<g clip-path="url(#clip0_604_1759)">
<path d="M12.3675 12.81H3.72127C3.59964 12.81 3.50208 12.7124 3.50208 12.5908V7.77988C3.50208 7.16664 3.62244 6.57114 3.85938 6.01238C4.08744 5.47136 4.4156 4.98482 4.83245 4.56797C5.25057 4.14985 5.73584 3.82423 6.27559 3.59363C6.83562 3.3567 7.43112 3.23633 8.0431 3.23633C8.65507 3.23633 9.25184 3.3567 9.8106 3.59363C10.3516 3.82169 10.8382 4.14985 11.255 4.56797C11.6731 4.98482 11.9987 5.47009 12.2293 6.01238C12.4663 6.57241 12.5866 7.16791 12.5866 7.77988V12.5908C12.5866 12.7124 12.4891 12.81 12.3675 12.81ZM3.9392 12.3716H12.1483V7.77988C12.1483 5.51571 10.3073 3.67472 8.0431 3.67472C5.77892 3.67472 3.94047 5.51571 3.94047 7.77988V12.3716H3.9392Z" fill="white" stroke="white" stroke-width="0.25" stroke-miterlimit="10"/>
<path d="M14.3085 15.341H1.78016C1.71174 15.341 1.64839 15.3093 1.60658 15.2548C1.56477 15.2004 1.55083 15.1307 1.56857 15.0661L2.22996 12.5345C2.2553 12.4382 2.34272 12.3711 2.44155 12.3711H13.6471C13.7472 12.3711 13.8334 12.4382 13.8587 12.5345L14.5201 15.0661C14.5366 15.1319 14.5226 15.2016 14.4808 15.2548C14.439 15.3081 14.3757 15.341 14.3072 15.341H14.3085ZM2.06271 14.9026H14.0247L13.4773 12.8095H2.61007L2.06271 14.9026Z" fill="white" stroke="white" stroke-width="0.25" stroke-miterlimit="10"/>
<path d="M8.04439 1.99852C7.92276 1.99852 7.8252 1.90096 7.8252 1.77932V0.23482C7.8252 0.113186 7.92276 0.015625 8.04439 0.015625C8.16603 0.015625 8.26359 0.113186 8.26359 0.23482V1.78059C8.26359 1.90223 8.16603 1.99979 8.04439 1.99979V1.99852Z" fill="white" stroke="white" stroke-width="0.25" stroke-miterlimit="10"/>
<path d="M4.92876 2.81053C4.85274 2.81053 4.77925 2.77126 4.7387 2.70157L3.96582 1.36486C3.905 1.26096 3.94048 1.12539 4.04691 1.06584C4.1508 1.00502 4.28638 1.0405 4.34593 1.14566L5.11754 2.48237C5.17836 2.58627 5.14288 2.72184 5.03772 2.78139C5.00224 2.80166 4.96423 2.81053 4.92876 2.81053Z" fill="white" stroke="white" stroke-width="0.25" stroke-miterlimit="10"/>
<path d="M2.63415 5.07065C2.59614 5.07065 2.5594 5.06178 2.52519 5.04151L1.18848 4.26989C1.08458 4.20907 1.04784 4.07603 1.10865 3.9696C1.16947 3.86571 1.30251 3.82896 1.40767 3.88978L2.74438 4.66267C2.84828 4.72348 2.88502 4.85652 2.82421 4.96168C2.78366 5.03264 2.71017 5.07065 2.63415 5.07065Z" fill="white" stroke="white" stroke-width="0.25" stroke-miterlimit="10"/>
<path d="M1.78018 8.17472H0.235675C0.11404 8.17472 0.0164795 8.07716 0.0164795 7.95552C0.0164795 7.83389 0.11404 7.73633 0.235675 7.73633H1.78018C1.90055 7.73633 1.99937 7.83389 1.99937 7.95552C1.99937 8.07716 1.90181 8.17472 1.78018 8.17472Z" fill="white" stroke="white" stroke-width="0.25" stroke-miterlimit="10"/>
<path d="M15.7644 8.26359H14.2199C14.0996 8.26359 14.0007 8.16603 14.0007 8.04439C14.0007 7.92276 14.0983 7.8252 14.2199 7.8252H15.7644C15.8861 7.8252 15.9836 7.92276 15.9836 8.04439C15.9836 8.16603 15.8861 8.26359 15.7644 8.26359Z" fill="white" stroke="white" stroke-width="0.25" stroke-miterlimit="10"/>
<path d="M13.409 5.14778C13.3329 5.14778 13.2595 5.10851 13.2189 5.03882C13.1581 4.93492 13.1936 4.79935 13.2987 4.7398L14.6355 3.96818C14.7393 3.90737 14.8749 3.94284 14.9345 4.04801C14.9953 4.15317 14.9598 4.28747 14.8546 4.34702L13.5179 5.11991C13.4837 5.14018 13.4457 5.14905 13.409 5.14905V5.14778Z" fill="white" stroke="white" stroke-width="0.25" stroke-miterlimit="10"/>
<path d="M11.1485 2.8542C11.1105 2.8542 11.0738 2.84533 11.0395 2.82506C10.9357 2.76424 10.8989 2.63121 10.9597 2.52604L11.7326 1.18933C11.7934 1.08543 11.9265 1.04869 12.0316 1.10951C12.1368 1.17032 12.1723 1.30336 12.1115 1.40853L11.3398 2.74524C11.2993 2.81492 11.2245 2.8542 11.1498 2.8542H11.1485Z" fill="white" stroke="white" stroke-width="0.25" stroke-miterlimit="10"/>
<path d="M8.67914 12.8095C8.55751 12.8095 8.45995 12.7119 8.45995 12.5903V9.76231C8.45995 9.68376 8.50176 9.61154 8.57018 9.57226C8.90087 9.38347 9.10613 9.02997 9.10613 8.6486C9.10613 8.06323 8.62973 7.58556 8.0431 7.58556C7.45646 7.58556 6.98006 8.06196 6.98006 8.6486C6.98006 9.02997 7.18532 9.38347 7.51602 9.57226C7.58443 9.61154 7.62625 9.68376 7.62625 9.76231V12.5903C7.62625 12.7119 7.52869 12.8095 7.40705 12.8095C7.28542 12.8095 7.18786 12.7119 7.18786 12.5903V9.88268C6.78621 9.60393 6.54041 9.14147 6.54041 8.6486C6.54041 7.82123 7.2132 7.14844 8.04183 7.14844C8.87047 7.14844 9.54326 7.82123 9.54326 8.6486C9.54326 9.14274 9.29745 9.6052 8.89581 9.88268V12.5903C8.89581 12.7119 8.79825 12.8095 8.67661 12.8095H8.67914Z" fill="white" stroke="white" stroke-width="0.25" stroke-miterlimit="10"/>
</g>
<defs>
<clipPath id="clip0_604_1759">
<rect width="16" height="15.3564" fill="white"/>
</clipPath>
</defs>
</svg>
