<svg width="58" height="51" viewBox="0 0 58 51" fill="none" xmlns="http://www.w3.org/2000/svg">
<g opacity="0.12" clip-path="url(#clip0_1065_317)">
<path d="M49.3908 24.3486H52.2915V21.4346H55.0994V24.3486H58V27.1696H55.0994V30.0836H52.2915V27.1696H49.3908V24.3486Z" fill="url(#paint0_linear_1065_317)"/>
<path d="M29.4614 19.3949V30.359H18.5438V39.1012H29.4614V50.0653H38.143V39.1012H49.0727V30.359H38.143V19.3949H29.4453M28.5106 18.46H39.0898V29.4241H50.0073V40.0361H39.0898V51.0002H28.5267V40.0361H17.5971V29.4241H28.5267V18.46H28.5106Z" fill="url(#paint1_linear_1065_317)"/>
<path d="M5.55959 21.2195V26.3676H0.435191V30.4676H5.55959V35.6157H9.64461V30.4676H14.7771V26.3676H9.65267V21.2195H5.56766M5.13256 20.7783H10.0878V25.9265H15.2041V30.9087H10.0797V36.0569H5.10839V30.9087H-0.0160122V25.9265H5.10839V20.7783H5.13256Z" fill="url(#paint2_linear_1065_317)"/>
<path d="M30.6859 5.57337V9.48306H26.7902V12.6035H30.6859V16.5173H33.7919V12.6035H37.6876V9.48306H33.7919V5.56932H30.6859M30.3515 5.2334H34.1142V9.14714H38.022V12.9354H34.1142V16.8532H30.3394V12.9354H26.4598V9.14714H30.3555V5.2334H30.3515Z" fill="url(#paint3_linear_1065_317)"/>
<path d="M38.9327 6.4433H45.3462V0H51.5503V6.4433H57.9639V12.6761H51.5503V19.1194H45.3462V12.6761H38.9327V6.4433Z" fill="url(#paint4_linear_1065_317)"/>
<path d="M17.8285 12.563C17.6213 12.0637 17.8561 11.4902 18.353 11.282C18.85 11.0738 19.4209 11.3097 19.6281 11.8089C19.8354 12.3082 19.6006 12.8817 19.1036 13.0899C18.6067 13.2981 18.0358 13.0622 17.8285 12.563Z" fill="url(#paint5_linear_1065_317)"/>
</g>
<defs>
<linearGradient id="paint0_linear_1065_317" x1="49.3908" y1="25.7611" x2="58" y2="25.7611" gradientUnits="userSpaceOnUse">
<stop stop-color="#0096FF"/>
<stop offset="0.63" stop-color="#36C2FF"/>
<stop offset="1" stop-color="#50D7FF"/>
</linearGradient>
<linearGradient id="paint1_linear_1065_317" x1="17.6132" y1="34.7301" x2="50.0073" y2="34.7301" gradientUnits="userSpaceOnUse">
<stop stop-color="#0096FF"/>
<stop offset="0.63" stop-color="#36C2FF"/>
<stop offset="1" stop-color="#50D7FF"/>
</linearGradient>
<linearGradient id="paint2_linear_1065_317" x1="0.000102372" y1="28.4196" x2="15.2041" y2="28.4196" gradientUnits="userSpaceOnUse">
<stop stop-color="#0096FF"/>
<stop offset="0.63" stop-color="#36C2FF"/>
<stop offset="1" stop-color="#50D7FF"/>
</linearGradient>
<linearGradient id="paint3_linear_1065_317" x1="26.4558" y1="11.0453" x2="38.022" y2="11.0453" gradientUnits="userSpaceOnUse">
<stop stop-color="#0096FF"/>
<stop offset="0.63" stop-color="#36C2FF"/>
<stop offset="1" stop-color="#50D7FF"/>
</linearGradient>
<linearGradient id="paint4_linear_1065_317" x1="38.9327" y1="9.55972" x2="57.9639" y2="9.55972" gradientUnits="userSpaceOnUse">
<stop stop-color="#0096FF"/>
<stop offset="0.63" stop-color="#36C2FF"/>
<stop offset="1" stop-color="#50D7FF"/>
</linearGradient>
<linearGradient id="paint5_linear_1065_317" x1="17.7548" y1="12.1877" x2="19.7047" y2="12.1877" gradientUnits="userSpaceOnUse">
<stop stop-color="#0096FF"/>
<stop offset="0.63" stop-color="#36C2FF"/>
<stop offset="1" stop-color="#50D7FF"/>
</linearGradient>
<clipPath id="clip0_1065_317">
<rect width="58" height="51" fill="white" transform="matrix(-1 0 0 1 58 0)"/>
</clipPath>
</defs>
</svg>
