<svg width="40" height="57" viewBox="0 0 40 57" fill="none" xmlns="http://www.w3.org/2000/svg">
<g clip-path="url(#clip0_845_668)">
<path d="M18.5105 5.30745H19.1367V5.92708C19.1367 6.40525 19.5193 6.78892 20 6.78892C20.4808 6.78892 20.8665 6.40525 20.8665 5.92708V5.30745H21.3945C21.8752 5.30745 22.261 4.92378 22.261 4.4456C22.261 3.96742 21.8752 3.63382 21.3945 3.63382H20.7684V3.01106C20.7684 2.53288 20.3858 2.15234 19.905 2.15234C19.4242 2.15234 19.0385 2.53288 19.0385 3.01106V3.63382H18.5105C18.0298 3.63382 17.644 4.01436 17.644 4.49254C17.644 4.97072 18.0298 5.30745 18.5105 5.30745Z" fill="#415DA1"/>
<path d="M7.40524 41.9838C6.49092 42.6066 5.72258 43.4184 5.04864 44.2802C4.76106 44.6608 4.85545 45.1896 5.24182 45.4287C5.62442 45.7148 6.15615 45.6177 6.39653 45.2842C6.97231 44.5199 7.64562 43.8966 8.36739 43.3245C8.74999 43.0385 8.84815 42.5603 8.56058 42.176C8.26986 41.7923 7.78847 41.6978 7.40587 41.9838H7.40524Z" fill="#415DA1"/>
<path d="M27.1171 37.1077C26.7785 37.0607 26.3959 37.0607 26.0574 37.0607C25.8673 37.0607 25.4344 36.9161 25.3866 36.4849C27.4046 36.3434 30.865 35.6262 35.385 33.1376C35.6254 32.9962 35.8186 32.7064 35.8186 32.4204V18.5995C35.8186 13.1975 33.9906 8.94144 30.4824 6.16625L31.8265 1.05087C31.9247 0.572688 31.6843 0 31.0104 0H8.89475C8.41399 0 7.93323 0.428108 8.07859 1.05087C8.41399 2.34082 9.47053 6.16625 9.47053 6.16625C5.963 8.89387 4.13435 13.1975 4.13435 18.5995V32.3728C4.13435 32.6588 4.27971 32.9455 4.56791 33.0901C9.04074 35.6256 12.5011 36.2928 14.5695 36.4373C14.5191 36.7709 14.2309 37.01 13.8955 37.01C13.5098 37.01 12.7887 37.0601 12.7408 37.0601C5.38407 37.6328 -0.047134 43.6576 6.1074e-05 50.8309V55.8048C6.1074e-05 56.283 0.385802 56.6166 0.866562 56.6667H39.1367C39.6175 56.6667 39.9529 56.283 40.0001 55.8048V50.8778C39.9529 46.0015 36.5869 37.8719 27.1171 37.1077ZM19.9529 43.227L14.7589 38.5428C15.6732 38.2061 16.2521 37.3474 16.2521 36.3434V34.8113C18.6559 35.6262 21.3001 35.6262 23.7046 34.8113V36.3434C23.7046 37.2998 24.2803 38.1585 25.194 38.5428L19.9529 43.227ZM9.76125 19.2223C15.9136 18.6496 20.528 16.976 23.8461 14.1069L23.8933 14.1538C25.7692 16.5923 27.0183 18.2659 30.2414 18.9832V23.5735C30.2414 29.1701 25.6742 33.7604 19.9994 33.7604C14.3247 33.7604 9.76063 29.2177 9.76063 23.5735V19.2223H9.76125ZM25.3866 34.7637V34.0934C29.3749 32.0862 31.8769 28.0216 31.8769 23.5728V19.2692C32.5477 19.3669 33.2688 19.4138 34.1353 19.4138V31.894C30.1942 33.9989 27.1643 34.6185 25.3866 34.7631V34.7637ZM29.9035 1.67362L27.8854 9.1799C25.3362 8.22355 22.6914 7.69842 19.9522 7.69842C17.213 7.69842 14.5689 8.22355 12.0191 9.1799L10.0016 1.67362H29.9035ZM9.95129 7.93751L10.6724 10.5206C10.8178 10.9487 11.3464 11.2848 11.8271 11.0457C14.3763 9.94474 17.1633 9.32448 19.9529 9.32448C22.7424 9.37142 25.5294 9.94411 28.0786 11.0457C28.6544 11.2848 29.1351 10.8535 29.2333 10.5206L29.9544 7.93751C32.5005 10.2308 33.8955 13.5786 34.0887 17.7408C30.2426 17.7408 27.886 17.2626 24.5679 12.3832C24.3747 12.0972 23.7996 11.8581 23.3188 12.2887C19.7131 15.875 13.9434 17.6432 5.81764 17.7408C6.01082 13.5786 7.40528 10.2314 9.95192 7.93751H9.95129ZM5.81701 19.4144C6.58534 19.4144 7.35745 19.3675 8.07859 19.3675V23.621C8.07859 28.0698 10.5774 32.1343 14.5689 34.1416V34.8119C12.7408 34.6705 9.76126 34.0477 5.81701 31.8953V19.4151V19.4144ZM1.63553 50.8778C1.63553 44.7116 6.29777 39.4986 12.5005 38.8282L18.7031 44.4218L16.6819 46.2876C16.4919 46.4321 16.3944 46.6712 16.3944 46.9103V55.04H1.63553V50.8778ZM38.2696 54.993H18.077V47.2445L27.4046 38.8288H27.4997C28.2718 38.9234 28.9929 39.0679 29.7141 39.307H29.7613C34.8571 40.8861 38.3174 45.5709 38.3174 50.8785L38.2702 54.9937L38.2696 54.993Z" fill="#415DA1"/>
<path d="M30.8176 46.958H26.4908C26.01 46.958 25.6274 47.3417 25.6274 47.8199C25.6274 48.298 26.01 48.6786 26.4908 48.6786H30.8176C31.2984 48.6786 31.6841 48.298 31.6841 47.8199C31.6841 47.3417 31.2506 46.958 30.8176 46.958Z" fill="#415DA1"/>
</g>
<defs>
<clipPath id="clip0_845_668">
<rect width="40" height="56.6667" fill="white"/>
</clipPath>
</defs>
</svg>
