<svg width="46" height="33" viewBox="0 0 46 33" fill="none" xmlns="http://www.w3.org/2000/svg">
<g clip-path="url(#clip0_900_433)">
<path d="M9.34276 32.8571C9.27489 32.8571 9.20702 32.8478 9.14149 32.8292C8.8349 32.7408 8.62427 32.4617 8.62427 32.1431V18.2602H0.718494C0.320631 18.2602 0 17.9392 0 17.5461V0.714033C0 0.320966 0.322971 0 0.718494 0H18.6879C19.0857 0 19.4064 0.320966 19.4064 0.714033V17.5322C19.4064 17.6671 19.3689 17.7997 19.294 17.9136L9.95126 32.5245C9.8202 32.7315 9.59084 32.8571 9.34276 32.8571ZM1.43699 16.8181H9.34276C9.74063 16.8181 10.0613 17.1391 10.0613 17.5322V29.6754L17.967 17.3229V1.42807H1.43699V16.8181Z" fill="#415DA1"/>
<path d="M35.9365 32.8571C35.8686 32.8571 35.8008 32.8478 35.7352 32.8292C35.4287 32.7408 35.218 32.4617 35.218 32.1431V18.2602H27.3122C26.9144 18.2602 26.5938 17.9392 26.5938 17.5461V0.714033C26.5938 0.31864 26.9167 0 27.3122 0H45.2816C45.6795 0 46.0001 0.320966 46.0001 0.714033V17.5322C46.0001 17.6671 45.9627 17.7997 45.8878 17.9136L36.545 32.5245C36.4139 32.7315 36.1846 32.8571 35.9365 32.8571ZM28.0307 16.8181H35.9365C36.3344 16.8181 36.655 17.1391 36.655 17.5322V29.6754L44.5608 17.3229V1.42807H28.0307V16.8181Z" fill="#415DA1"/>
</g>
<defs>
<clipPath id="clip0_900_433">
<rect width="46" height="32.8571" fill="white"/>
</clipPath>
</defs>
</svg>
