<svg width="26" height="26" viewBox="0 0 26 26" fill="none" xmlns="http://www.w3.org/2000/svg">
<g clip-path="url(#clip0_49_385)">
<path d="M7.54688 0C3.39062 0 0 3.39062 0 7.54688V18.4531C0 22.6094 3.39062 26 7.54688 26H18.4531C22.6094 26 26 22.6094 26 18.4531V7.54688C26 3.39062 22.6094 0 18.4531 0H7.54688ZM7.54688 2H18.4531C21.5273 2 24 4.46875 24 7.54688V18.4531C24 21.5273 21.5312 24 18.4531 24H7.54688C4.47266 24 2 21.5312 2 18.4531V7.54688C2 4.47266 4.46875 2 7.54688 2ZM20.5 4C19.6719 4 19 4.67188 19 5.5C19 6.32812 19.6719 7 20.5 7C21.3281 7 22 6.32812 22 5.5C22 4.67188 21.3281 4 20.5 4ZM13 6C9.14453 6 6 9.14453 6 13C6 16.8555 9.14453 20 13 20C16.8555 20 20 16.8555 20 13C20 9.14453 16.8555 6 13 6ZM13 8C15.7734 8 18 10.2266 18 13C18 15.7734 15.7734 18 13 18C10.2266 18 8 15.7734 8 13C8 10.2266 10.2266 8 13 8Z" fill="white"/>
</g>
<defs>
<clipPath id="clip0_49_385">
<rect width="26" height="26" fill="white"/>
</clipPath>
</defs>
</svg>
