<svg width="48" height="45" viewBox="0 0 48 45" fill="none" xmlns="http://www.w3.org/2000/svg">
<rect width="33" height="33" rx="2" fill="#ECF2FE"/>
<g clip-path="url(#clip0_1013_274)">
<path d="M21.8874 20.8856H22.4249V21.2602C22.4249 23.2995 23.9266 25.6166 25.7833 26.7554V28.6383C25.7829 28.7245 25.7552 28.8082 25.7042 28.8774C25.6532 28.9466 25.5815 28.9975 25.4997 29.0229L23.1375 30.2906L23.4458 30.6007C24.921 32.0797 26.9186 32.91 29.0011 32.91C31.0837 32.91 33.0813 32.0797 34.5565 30.6007L34.8647 30.2906L32.5001 29.0229C32.4183 28.9975 32.3466 28.9466 32.2956 28.8774C32.2446 28.8082 32.2169 28.7245 32.2165 28.6383V26.7405C34.0757 25.6017 35.5749 23.2871 35.5749 21.2478V20.8856H36.1124C36.357 20.8856 36.5916 20.7878 36.7645 20.6138C36.9374 20.4398 37.0346 20.2038 37.0346 19.9577V18.1417C37.0346 18.0101 36.9827 17.8839 36.8902 17.7908C36.7977 17.6978 36.6723 17.6455 36.5415 17.6455H21.4731C21.3423 17.6455 21.2169 17.6978 21.1244 17.7908C21.0319 17.8839 20.98 18.0101 20.98 18.1417V19.9577C20.9793 20.2014 21.0742 20.4356 21.2441 20.6093C21.414 20.783 21.6452 20.8823 21.8874 20.8856Z" fill="#FED9A8"/>
<path d="M28.905 43.9232C28.913 43.9379 28.9243 43.9505 28.938 43.96C28.9517 43.9695 28.9674 43.9755 28.9839 43.9778H29.016C29.0327 43.9754 29.0487 43.9692 29.0628 43.9598C29.0769 43.9503 29.0887 43.9378 29.0974 43.9232L35.2618 29.2487L33.8193 28.7352C33.7069 28.6953 33.5867 28.6826 33.4684 28.6981C33.3502 28.7136 33.2373 28.7569 33.1388 28.8245L28.9963 31.6825L24.8513 28.8245C24.7529 28.7567 24.6399 28.7133 24.5217 28.6978C24.4034 28.6823 24.2832 28.6951 24.1707 28.7352L22.7283 29.2487L28.905 43.9232Z" fill="#10C4C4"/>
<path d="M29.7953 34.7939H28.2049L26.7402 44.4272H31.2625L29.7953 34.7939Z" fill="#FF9A1F"/>
<path d="M28.9914 31.6826L26.8684 33.387C26.8423 33.4087 26.8245 33.439 26.8182 33.4725C26.8119 33.506 26.8174 33.5407 26.8339 33.5706L27.9188 35.456C27.9315 35.4782 27.9499 35.4965 27.972 35.5092C27.9941 35.5218 28.0191 35.5283 28.0446 35.528H29.9358C29.9612 35.5283 29.9863 35.5218 30.0084 35.5092C30.0305 35.4965 30.0488 35.4782 30.0615 35.456L31.1465 33.5706C31.1637 33.5411 31.1699 33.5065 31.164 33.4728C31.1581 33.4392 31.1406 33.4088 31.1144 33.387L28.9914 31.6826Z" fill="#FFBF14"/>
<path d="M24.9794 34.9101L26.8954 33.372L29.0011 31.6825L24.8562 28.8245C24.7577 28.7567 24.6448 28.7133 24.5265 28.6978C24.4083 28.6823 24.288 28.6951 24.1756 28.7352L22.0674 29.4795L24.9794 34.9101Z" fill="#0FB0C0"/>
<path d="M33.0204 34.9099L31.1045 33.3717L29.0012 31.6822L33.1437 28.8242C33.2422 28.7566 33.3551 28.7133 33.4734 28.6978C33.5916 28.6823 33.7118 28.695 33.8243 28.7349L35.935 29.4792L33.0204 34.9099Z" fill="#0FB0C0"/>
<path d="M47.4256 43.159L47.0927 36.9767C47.0267 35.9075 46.6494 34.8815 46.008 34.0266C45.3665 33.1716 44.4892 32.5255 43.4853 32.1687L34.6406 29.0254L29.0753 42.261C29.0691 42.2724 29.0603 42.2822 29.0496 42.2896C29.0388 42.2969 29.0265 42.3015 29.0136 42.3031H28.9915C28.9788 42.3018 28.9668 42.2972 28.9564 42.2898C28.946 42.2824 28.9377 42.2725 28.9323 42.261L23.3646 29.0254L14.5199 32.1687C13.516 32.5255 12.6386 33.1716 11.9972 34.0266C11.3557 34.8815 10.9784 35.9075 10.9124 36.9767L10.5795 43.159C10.5687 43.3214 10.5912 43.4843 10.6456 43.6376C10.6999 43.7909 10.785 43.9314 10.8955 44.0502C11.006 44.1691 11.1396 44.2639 11.288 44.3286C11.4364 44.3934 11.5964 44.4268 11.7582 44.4268H46.2519C46.4132 44.4261 46.5727 44.3922 46.7205 44.3271C46.8684 44.2621 47.0014 44.1672 47.1113 44.0484C47.2213 43.9296 47.3059 43.7894 47.36 43.6365C47.414 43.4835 47.4364 43.321 47.4256 43.159Z" fill="#E1EFFB"/>
<path d="M47.4254 43.159L47.0925 36.9767C47.0265 35.9075 46.6492 34.8815 46.0078 34.0266C45.3663 33.1716 44.489 32.5255 43.4851 32.1687L34.6403 29.0254L34.1472 30.2113L39.6532 32.1687C40.6571 32.5255 41.5345 33.1716 42.176 34.0266C42.8174 34.8815 43.1947 35.9075 43.2607 36.9767L43.5837 42.9159H11.753C11.5039 42.9153 11.2614 42.8355 11.06 42.6881C10.8585 42.5406 10.7085 42.333 10.6311 42.0947L10.5744 43.159C10.5636 43.3214 10.5861 43.4843 10.6404 43.6376C10.6947 43.7909 10.7798 43.9314 10.8903 44.0502C11.0008 44.1691 11.1344 44.2639 11.2828 44.3286C11.4312 44.3934 11.5913 44.4268 11.753 44.4268H46.2517C46.413 44.4261 46.5725 44.3922 46.7203 44.3271C46.8682 44.2621 47.0011 44.1672 47.1111 44.0484C47.2211 43.9296 47.3057 43.7894 47.3598 43.6365C47.4138 43.4835 47.4361 43.321 47.4254 43.159Z" fill="#CCDFED"/>
<path d="M22.425 21.2632C22.425 23.7838 24.7207 26.7211 27.147 27.3463C28.7251 27.7457 29.1862 27.7482 30.7643 27.3463L30.8358 27.3289C33.2695 26.7211 35.575 23.7689 35.575 21.2409V14.1777H22.425V21.2632Z" fill="#FED9A8"/>
<path d="M24.0352 25.2178C24.6518 25.9771 25.4217 26.5961 26.2938 27.0338H31.6741C32.5539 26.5994 33.3308 25.9801 33.9525 25.2178H24.0352Z" fill="#FED9A8"/>
<path d="M37.3628 40.4874C38.6442 40.4874 39.6831 39.4422 39.6831 38.1529C39.6831 36.8636 38.6442 35.8184 37.3628 35.8184C36.0813 35.8184 35.0425 36.8636 35.0425 38.1529C35.0425 39.4422 36.0813 40.4874 37.3628 40.4874Z" fill="#7A88E8"/>
<path d="M37.3626 39.2296C37.9537 39.2296 38.4328 38.7475 38.4328 38.1529C38.4328 37.5582 37.9537 37.0762 37.3626 37.0762C36.7716 37.0762 36.2925 37.5582 36.2925 38.1529C36.2925 38.7475 36.7716 39.2296 37.3626 39.2296Z" fill="#61AFF6"/>
<path d="M31.8023 14.1846V21.2477C31.8023 23.1034 30.5694 26.0011 28.9346 27.6484C29.5544 27.6283 30.1692 27.5291 30.7642 27.3531L30.8357 27.3358C33.2694 26.728 35.5749 23.7757 35.5749 21.2477V14.1846H31.8023Z" fill="#F4C892"/>
<path d="M28.9913 8.57324H26.713C25.2169 8.5739 23.7823 9.17215 22.7244 10.2365C21.6665 11.3009 21.0719 12.7443 21.0713 14.2495L21.2833 17.6384C21.289 17.7382 21.3216 17.8345 21.3775 17.917C21.4334 17.9996 21.5106 18.0653 21.6008 18.1071C21.691 18.1489 21.7908 18.1652 21.8895 18.1543C21.9882 18.1435 22.0821 18.1058 22.1612 18.0453C22.3159 17.9189 22.4405 17.7593 22.5258 17.5781C22.6111 17.3969 22.6551 17.1988 22.6543 16.9983V14.7655C29.6325 17.9907 32.7812 17.435 34.1916 16.4178C34.299 16.3424 34.425 16.2981 34.5557 16.2897C34.6864 16.2814 34.8169 16.3093 34.9329 16.3705C35.049 16.4317 35.146 16.5237 35.2136 16.6367C35.2812 16.7496 35.3166 16.879 35.3161 17.0108C35.3146 17.211 35.3582 17.409 35.4436 17.5898C35.529 17.7707 35.654 17.9298 35.8092 18.0552C35.8878 18.1165 35.9816 18.1549 36.0804 18.1664C36.1792 18.1778 36.2793 18.1619 36.3697 18.1202C36.4601 18.0786 36.5375 18.0128 36.5935 17.9301C36.6494 17.8473 36.6817 17.7507 36.687 17.6508L36.8966 14.2595C36.8966 12.754 36.3022 11.3102 35.2442 10.2457C34.1862 9.18121 32.7512 8.58318 31.2549 8.58318L28.9913 8.57324Z" fill="#FFB125"/>
<path d="M31.2648 8.57324H27.4946C28.9907 8.5739 30.4253 9.17215 31.4832 10.2365C32.5411 11.3009 33.1357 12.7443 33.1363 14.2495L32.9662 16.9785C33.4073 16.8602 33.8245 16.6655 34.199 16.4029C34.3064 16.3275 34.4324 16.2832 34.5631 16.2748C34.6938 16.2665 34.8243 16.2944 34.9403 16.3556C35.0563 16.4168 35.1534 16.5089 35.221 16.6218C35.2886 16.7347 35.324 16.8641 35.3235 16.9959C35.3222 17.1961 35.3659 17.394 35.4513 17.5749C35.5367 17.7557 35.6616 17.9148 35.8166 18.0403C35.8952 18.1016 35.989 18.14 36.0878 18.1515C36.1866 18.163 36.2867 18.147 36.3771 18.1053C36.4675 18.0637 36.5449 17.9979 36.6008 17.9152C36.6568 17.8324 36.6891 17.7359 36.6944 17.6359L36.904 14.2446C36.9027 12.7404 36.3081 11.2983 35.2507 10.2349C34.1934 9.17155 32.7598 8.5739 31.2648 8.57324Z" fill="#FF901D"/>
<path d="M28.9914 42.8793H28.8953C28.7954 42.8649 28.7004 42.8268 28.6181 42.7681C28.5358 42.7094 28.4685 42.6319 28.4218 42.5419C28.4126 42.5267 28.4044 42.511 28.3972 42.4948L23.0415 29.7554L21.281 30.3806V32.0478C21.817 32.1582 22.3029 32.4406 22.6657 32.8527C23.0285 33.2647 23.2486 33.784 23.293 34.3326L23.7344 40.0387C23.7457 40.1701 23.7295 40.3024 23.6871 40.4271C23.6446 40.5518 23.5768 40.6663 23.4878 40.7631C23.3989 40.86 23.2909 40.9373 23.1709 40.9903C23.0508 41.0432 22.9211 41.0706 22.79 41.0708H22.033C21.8813 41.0708 21.7358 41.0101 21.6285 40.9022C21.5212 40.7943 21.461 40.6479 21.461 40.4952C21.461 40.3426 21.5212 40.1962 21.6285 40.0882C21.7358 39.9803 21.8813 39.9196 22.033 39.9196H22.5804L22.1539 34.422C22.1247 34.077 21.9679 33.7556 21.7145 33.5213C21.4611 33.2871 21.1295 33.1571 20.7853 33.1571C20.4412 33.1571 20.1096 33.2871 19.8562 33.5213C19.6028 33.7556 19.446 34.077 19.4169 34.422L18.9903 39.9221H19.5377C19.6158 39.9169 19.6941 39.928 19.7678 39.9545C19.8416 39.981 19.9091 40.0225 19.9662 40.0763C20.0233 40.1301 20.0689 40.1952 20.1001 40.2675C20.1312 40.3397 20.1473 40.4177 20.1473 40.4964C20.1473 40.5752 20.1312 40.6531 20.1001 40.7254C20.0689 40.7977 20.0233 40.8627 19.9662 40.9165C19.9091 40.9704 19.8416 41.0119 19.7678 41.0384C19.6941 41.0649 19.6158 41.0759 19.5377 41.0708H18.7831C18.6522 41.0704 18.5228 41.043 18.4028 40.9901C18.2829 40.9373 18.175 40.8602 18.086 40.7636C17.9969 40.6671 17.9286 40.5531 17.8852 40.4288C17.8418 40.3045 17.8243 40.1726 17.8338 40.0412L18.2777 34.3351C18.3188 33.8128 18.5199 33.3161 18.8533 32.9135C19.1867 32.5109 19.636 32.2223 20.1393 32.0875V30.79L14.7146 32.7226C13.9105 33.01 13.1956 33.5052 12.6416 34.1583C12.0877 34.8115 11.7141 35.5997 11.5584 36.4439C11.5347 36.5757 11.4656 36.695 11.3633 36.7807C11.2609 36.8664 11.1319 36.9132 10.9987 36.9128C10.9635 36.9164 10.9279 36.9164 10.8927 36.9128C10.818 36.8983 10.747 36.8689 10.6839 36.8263C10.6208 36.7837 10.5669 36.7287 10.5253 36.6647C10.4826 36.6028 10.4527 36.5329 10.4375 36.4592C10.4222 36.3854 10.4219 36.3094 10.4365 36.2355C10.6308 35.1956 11.0928 34.2252 11.7765 33.4211C12.4601 32.617 13.3414 32.0075 14.3324 31.6533L20.1566 29.5818C20.2121 28.6289 20.5847 27.7226 21.2145 27.0088C21.8443 26.2951 22.6946 25.8154 23.6284 25.647C22.5632 24.3768 21.9245 22.8635 21.8678 21.4841C21.4794 21.4758 21.1094 21.3158 20.8361 21.038C20.5628 20.7603 20.4076 20.3865 20.4032 19.9956V18.1796C20.4016 17.9022 20.5078 17.6351 20.699 17.4353L20.5042 14.3193V14.2821C20.5062 12.6246 21.1615 11.0356 22.3264 9.86356C23.4913 8.69154 25.0706 8.03224 26.718 8.03027H31.2723C32.9197 8.03224 34.499 8.69154 35.6639 9.86356C36.8288 11.0356 37.484 12.6246 37.486 14.2821V14.3193L37.2937 17.4105C37.3945 17.5097 37.4745 17.6282 37.5292 17.759C37.5838 17.8898 37.6119 18.0303 37.6118 18.1721V19.9882C37.6074 20.379 37.4521 20.7528 37.1788 21.0306C36.9055 21.3084 36.5355 21.4683 36.1471 21.4767C36.0879 22.8585 35.4443 24.3719 34.3791 25.6371C35.3106 25.813 36.1577 26.295 36.7874 27.0076C37.4171 27.7202 37.7937 28.623 37.8583 29.5743L40.0479 30.3533C40.1739 30.3994 40.2797 30.4886 40.347 30.6051C40.4143 30.7217 40.4388 30.8584 40.4162 30.9913C40.3936 31.1241 40.3253 31.2448 40.2233 31.3323C40.1213 31.4197 39.9921 31.4684 39.8581 31.4697C39.7934 31.4701 39.7292 31.4592 39.6682 31.4375L37.8657 30.7974V35.3052C38.4085 35.4002 38.9131 35.6491 39.32 36.0228C39.7269 36.3965 40.0193 36.8793 40.1627 37.4145C40.3062 37.9497 40.2947 38.515 40.1297 39.0438C39.9647 39.5727 39.653 40.0431 39.2312 40.3998C38.8095 40.7565 38.2953 40.9845 37.7492 41.0572C37.203 41.1298 36.6475 41.044 36.1482 40.8099C35.6488 40.5757 35.2264 40.2029 34.9304 39.7353C34.6345 39.2678 34.4775 38.7249 34.4778 38.1706C34.4815 37.5129 34.7051 36.8755 35.1125 36.3611C35.52 35.8468 36.0877 35.4853 36.7241 35.3349V30.3905L34.966 29.7654L29.6079 42.5047C29.6007 42.5217 29.5924 42.5383 29.5832 42.5543C29.5732 42.5742 29.5616 42.5933 29.5487 42.6114C29.5394 42.6257 29.5287 42.639 29.5166 42.6511L29.5018 42.6709L29.4821 42.6933L29.4649 42.7081L29.4476 42.7255V42.7379H29.4303L29.4008 42.7603H29.386L29.3366 42.79L29.2775 42.8198H29.2602H29.2429H29.206L29.1295 42.8371H29.0407H28.9914V42.8793ZM28.9914 40.9641L29.8396 38.9446L29.4057 36.104H28.5747L28.1408 38.9446L28.9914 40.9641ZM37.3529 36.3943C37.0064 36.3938 36.6676 36.4967 36.3793 36.6901C36.091 36.8835 35.8663 37.1585 35.7334 37.4805C35.6006 37.8025 35.5657 38.1568 35.6332 38.4987C35.7007 38.8407 35.8675 39.1548 36.1125 39.4012C36.3574 39.6477 36.6696 39.8155 37.0095 39.8834C37.3493 39.9513 37.7015 39.9162 38.0215 39.7826C38.3415 39.649 38.6149 39.4228 38.8071 39.1328C38.9993 38.8427 39.1016 38.5018 39.1011 38.1532C39.1005 37.6908 38.9191 37.2471 38.5962 36.918C38.2733 36.5889 37.8347 36.4008 37.3751 36.3943H37.3529ZM30.6953 36.9277L31.6816 34.5758L31.3758 34.3277L30.5621 35.7418C30.5498 35.7641 30.535 35.7815 30.5227 35.8013L30.6953 36.9277ZM27.2999 36.9277L27.47 35.8038L27.4306 35.7443L26.6169 34.3302L26.3111 34.5783L27.2999 36.9277ZM29.6991 34.943L30.4734 33.5909L28.9939 32.4075L27.5144 33.5909L28.2887 34.943H29.6991ZM25.8476 33.4544L26.5059 32.926L28.0248 31.7054L24.5185 29.289C24.4879 29.2661 24.4507 29.2539 24.4125 29.2543C24.3921 29.2508 24.3713 29.2508 24.3509 29.2543L24.1043 29.3386L25.8476 33.4544ZM32.1476 33.4544L33.8737 29.3436L33.6271 29.2592C33.6067 29.2557 33.5858 29.2557 33.5654 29.2592C33.5273 29.2589 33.49 29.2711 33.4594 29.294L29.9531 31.7104L32.1476 33.4544ZM28.9988 30.9735L31.7506 29.0757C31.6807 28.9364 31.6444 28.7826 31.6446 28.6266V27.6764L31.5977 27.6938L31.4128 27.7633L31.2649 27.8129L31.1909 27.8352L30.9715 27.8972L30.8999 27.9146L30.5991 27.989L30.4388 28.0262L30.2958 28.0585L30.1577 28.0858L30.0295 28.1131L29.9087 28.1354L29.7928 28.1553H29.709L29.5955 28.1701L29.4871 28.185H29.3785H29.3441H29.2725H29.238H29.169H28.7449H28.6388H28.5328L28.4243 28.1726L28.3133 28.1577L28.1999 28.1428L28.084 28.123L27.9657 28.1031L27.8424 28.0783L27.6772 28.0436L27.549 28.0163L27.4207 27.9865L27.2358 27.9419L27.1569 27.922L27.004 27.8848L26.7821 27.8228L26.7155 27.8005L26.5503 27.7459L26.4172 27.6938L26.3481 27.669V28.6192C26.3479 28.7751 26.3116 28.9288 26.2421 29.0682L28.9988 30.9735ZM24.3829 26.6866C23.6809 26.69 23.0006 26.9317 22.452 27.3725C21.9034 27.8132 21.5186 28.4273 21.3599 29.1154L23.9834 28.1825C24.1249 28.131 24.2743 28.1049 24.4248 28.1056C24.6889 28.108 24.9464 28.1891 25.1646 28.3388L25.1966 28.3612V27.0587C25.0289 26.9446 24.8613 26.8106 24.7035 26.6866H24.3829ZM33.5704 28.1056C33.7208 28.1047 33.8703 28.1308 34.0117 28.1825L36.6353 29.1154C36.4766 28.4273 36.0918 27.8132 35.5432 27.3725C34.9946 26.9317 34.3143 26.69 33.6123 26.6866H33.2671C33.1027 26.8156 32.9424 26.9346 32.7863 27.0438V28.3612L32.8183 28.3388C33.0421 28.1907 33.305 28.1137 33.5728 28.118L33.5704 28.1056ZM26.0892 26.2574C26.1484 26.2946 26.2076 26.3293 26.2692 26.3615H26.2865C26.4098 26.431 26.5331 26.493 26.6613 26.5501L26.718 26.5724L26.8487 26.627L26.9128 26.6493L27.0435 26.6965L27.1002 26.7138C27.1609 26.7345 27.2226 26.7519 27.2851 26.7659C27.6476 26.8577 27.9065 26.9198 28.1235 26.9594C28.4 27.0182 28.6817 27.049 28.9643 27.0512C29.5267 27.0277 30.0841 26.9343 30.6238 26.7734L30.6953 26.756C30.7495 26.7436 30.8087 26.7262 30.8778 26.7039L30.9369 26.6866L31.0652 26.6419L31.1293 26.6196L31.2649 26.5625L31.3117 26.5427C31.3734 26.5179 31.4325 26.4906 31.4917 26.4608L31.541 26.436L31.6791 26.364L31.7235 26.3392L31.8862 26.245H31.9035C33.669 25.1633 35.0005 23.0198 35.0005 21.2385V17.9514C34.9391 17.8448 34.8879 17.7327 34.8476 17.6164V17.6015L34.8181 17.5073V17.4676C34.8181 17.4428 34.8181 17.418 34.8008 17.3932C34.802 17.3783 34.802 17.3633 34.8008 17.3485C34.8008 17.3237 34.8008 17.2989 34.8008 17.2765C34.8008 17.2542 34.8008 17.2418 34.8008 17.2294V17.1525C34.8008 17.1525 34.8008 17.1203 34.8008 17.1128C34.8008 17.1054 34.8008 17.0334 34.8008 16.9937C34.8013 16.9659 34.7939 16.9386 34.7795 16.9148C34.7651 16.8911 34.7442 16.872 34.7194 16.8598C34.6994 16.8497 34.6776 16.8438 34.6553 16.8424C34.6366 16.8426 34.6181 16.8469 34.6011 16.8548H34.5813C34.2048 17.1215 33.7887 17.3266 33.3485 17.4626H33.3115L33.2621 17.4775L33.203 17.4948L33.0698 17.5321H33.0328C32.4549 17.6725 31.8619 17.7408 31.2673 17.7355C31.0208 17.7355 30.7742 17.7355 30.5276 17.7057C28.555 17.5619 26.1287 16.8523 23.2832 15.6019V17.0086C23.2832 17.0483 23.2832 17.0855 23.2832 17.1252V17.1574V17.2393V17.274C23.2832 17.3013 23.2832 17.3286 23.2684 17.3559V17.3857C23.2684 17.4155 23.2684 17.4428 23.2486 17.4725V17.4948C23.2486 17.5271 23.2314 17.5594 23.2215 17.5916C23.1853 17.7043 23.1383 17.8132 23.081 17.9166V21.2609C23.081 23.0297 24.4076 25.1807 26.1681 26.2623V26.2797L26.0892 26.2574ZM21.5349 19.946C21.5345 20.0337 21.5666 20.1184 21.625 20.1835C21.6834 20.2487 21.7638 20.2896 21.8506 20.2983V18.7452H21.821C21.7236 18.7452 21.6267 18.7327 21.5325 18.708L21.5349 19.946ZM36.1446 20.2983C36.2314 20.2896 36.3118 20.2487 36.3702 20.1835C36.4286 20.1184 36.4607 20.0337 36.4603 19.946V18.6807C36.358 18.7123 36.2516 18.7282 36.1446 18.7279V20.2983ZM34.5986 15.6912H34.7022H34.7564H34.7885H34.8378H34.8723L34.9192 15.7037H34.9512C34.968 15.7075 34.9844 15.7125 35.0005 15.7186H35.0301L35.0819 15.7384H35.109L35.1854 15.7756C35.4105 15.889 35.5976 16.0661 35.7238 16.2852C35.85 16.5043 35.9097 16.7558 35.8956 17.0086C35.8956 17.0334 35.8956 17.0582 35.8956 17.083V17.0979C35.894 17.1186 35.894 17.1393 35.8956 17.1599V17.1773C35.9007 17.2009 35.9073 17.224 35.9153 17.2468L35.9375 17.3063V17.3311L35.9572 17.3708C35.9628 17.3795 35.9677 17.3887 35.972 17.3981C36.0081 17.4569 36.052 17.5103 36.1027 17.5569L36.3099 14.2325C36.302 12.8833 35.7645 11.5919 34.8144 10.6397C33.8644 9.68751 32.5787 9.15172 31.2377 9.14913H26.681C25.3398 9.15173 24.0541 9.68793 23.1043 10.6407C22.1546 11.5935 21.6179 12.8855 21.6114 14.235L21.8185 17.5569C21.8623 17.5133 21.9011 17.4651 21.9344 17.413C21.9466 17.398 21.9565 17.3813 21.964 17.3634C21.972 17.3518 21.9786 17.3393 21.9837 17.3262L21.9985 17.2964C21.9996 17.284 21.9996 17.2716 21.9985 17.2592C21.9992 17.2501 21.9992 17.241 21.9985 17.2319C22.0054 17.2107 22.0112 17.1892 22.0158 17.1674C22.0158 17.1426 22.0158 17.1227 22.0158 17.1029V17.083C22.0158 17.0582 22.0158 17.0334 22.0158 17.0086V14.7758C22.0138 14.6773 22.0371 14.5799 22.0833 14.4931C22.1295 14.4062 22.1971 14.3327 22.2796 14.2796C22.3607 14.2284 22.4531 14.1982 22.5486 14.1917C22.6442 14.1852 22.7398 14.2026 22.827 14.2424C27.1002 16.2271 29.7312 16.639 31.186 16.639C31.6733 16.6445 32.1595 16.5895 32.6334 16.4752C33.0481 16.373 33.4408 16.1956 33.7923 15.9517L33.8737 15.8972L33.8983 15.8823L33.955 15.8525L33.9871 15.8351L34.0413 15.8103L34.0734 15.7979L34.1301 15.7781H34.1646L34.2189 15.7632H34.2534H34.315H34.3446H34.4186H34.4358H34.5295L34.5986 15.6912Z" fill="black"/>
<path d="M11.7532 45.0028C11.5133 45.0023 11.2761 44.9523 11.0561 44.8561C10.8361 44.7599 10.638 44.6193 10.474 44.4432C10.31 44.267 10.1836 44.059 10.1025 43.8318C10.0214 43.6046 9.98739 43.3632 10.0025 43.1223L10.1406 40.5868C10.1482 40.4401 10.2115 40.3018 10.3176 40.2007C10.4236 40.0996 10.5641 40.0433 10.7102 40.0435H10.7423C10.8936 40.0518 11.0355 40.1203 11.1367 40.2338C11.238 40.3473 11.2903 40.4966 11.2823 40.6489L11.1442 43.1893C11.1384 43.2743 11.1501 43.3596 11.1785 43.4398C11.2069 43.52 11.2515 43.5935 11.3094 43.6557C11.3658 43.7175 11.4344 43.7666 11.5109 43.7999C11.5873 43.8333 11.6699 43.85 11.7532 43.8492H15.7429V37.8802C15.7524 37.7344 15.8167 37.5977 15.9227 37.4978C16.0287 37.3979 16.1684 37.3424 16.3137 37.3424C16.4589 37.3424 16.5987 37.3979 16.7047 37.4978C16.8107 37.5977 16.875 37.7344 16.8845 37.8802V43.8492H41.0491V37.8802C41.0491 37.7275 41.1093 37.5811 41.2166 37.4732C41.3239 37.3652 41.4694 37.3046 41.6211 37.3046C41.7728 37.3046 41.9183 37.3652 42.0256 37.4732C42.1329 37.5811 42.1932 37.7275 42.1932 37.8802V43.8492H46.2518C46.3354 43.849 46.418 43.8316 46.4946 43.7981C46.5712 43.7646 46.6401 43.7156 46.6972 43.6543C46.7543 43.5929 46.7982 43.5204 46.8264 43.4413C46.8545 43.3622 46.8663 43.2781 46.8609 43.1943L46.5255 36.992C46.4712 36.1316 46.1916 35.3009 45.7153 34.5842C45.239 33.8675 44.5827 33.2902 43.8132 32.9109C43.7457 32.878 43.6855 32.8318 43.636 32.7752C43.5864 32.7185 43.5486 32.6525 43.5247 32.581C43.4993 32.5099 43.4884 32.4344 43.4926 32.3589C43.4969 32.2835 43.5162 32.2097 43.5494 32.1419C43.5963 32.0447 43.6696 31.9629 43.7608 31.9058C43.852 31.8487 43.9573 31.8188 44.0647 31.8193C44.15 31.82 44.2342 31.8395 44.3113 31.8764C45.264 32.3452 46.0767 33.0591 46.6669 33.9457C47.2571 34.8323 47.6039 35.8601 47.6721 36.925L48.0075 43.1124C48.0219 43.3531 47.9873 43.5942 47.9058 43.8209C47.8242 44.0477 47.6975 44.2552 47.5333 44.4309C47.3691 44.6065 47.1709 44.7466 46.951 44.8424C46.731 44.9381 46.494 44.9877 46.2543 44.9879L11.7532 45.0028Z" fill="black"/>
</g>
<defs>
<clipPath id="clip0_1013_274">
<rect width="38" height="37" fill="white" transform="translate(10 8)"/>
</clipPath>
</defs>
</svg>
