<svg width="12" height="9" viewBox="0 0 12 9" fill="none" xmlns="http://www.w3.org/2000/svg">
<path d="M11.8232 3.66316L8.3419 0.181895C8.09937 -0.0606316 7.71032 -0.0606316 7.46779 0.181895C7.22526 0.424421 7.22526 0.813474 7.46779 1.056L9.89305 3.48126H0.621474C0.277895 3.48126 0 3.75916 0 4.10274C0 4.44632 0.277895 4.72421 0.621474 4.72421H9.888L7.46274 7.14947C7.22021 7.392 7.22021 7.78105 7.46274 8.02358C7.70526 8.2661 8.09432 8.2661 8.33684 8.02358L11.8181 4.54232C11.9394 4.42105 12 4.26442 12 4.10274C12 3.94105 11.9444 3.78442 11.8232 3.66316Z" fill="#415DA1"/>
</svg>
