<svg width="46" height="42" viewBox="0 0 46 42" fill="none" xmlns="http://www.w3.org/2000/svg">
<g clip-path="url(#clip0_850_741)">
<path d="M18.242 36.8904L17.7982 36.1332C14.4664 30.4561 5.60436 18.3943 5.51505 18.2734L5.25537 17.9202L8.58858 14.6261L18.1293 21.2899C24.1088 13.5597 29.6802 8.24001 33.3239 5.12321C37.3496 1.67796 39.8983 0.136051 40.0054 0.0728353L40.1263 0H46.0014L45.0066 0.886392C32.4446 12.0783 18.8149 35.8886 18.6789 36.1277L18.2447 36.8904H18.242Z" fill="#415DA1"/>
<path d="M19.0512 5.60649C19.0512 6.05312 18.6898 6.41455 18.2433 6.41455C17.7967 6.41455 17.4368 6.05312 17.4368 5.60649C17.4368 5.15986 17.7981 4.7998 18.2433 4.7998C18.6884 4.7998 19.0512 5.16123 19.0512 5.60649Z" fill="#415DA1"/>
<path d="M19.0512 40.5264C19.0512 40.973 18.6898 41.3345 18.2433 41.3345C17.7967 41.3345 17.4368 40.973 17.4368 40.5264C17.4368 40.0798 17.7981 39.7197 18.2433 39.7197C18.6884 39.7197 19.0512 40.0812 19.0512 40.5264Z" fill="#415DA1"/>
<path d="M1.6144 23.0668C1.6144 23.5121 1.25305 23.8749 0.806511 23.8749C0.359976 23.8749 0 23.5135 0 23.0668C0 22.6202 0.36135 22.2588 0.806511 22.2588C1.25167 22.2588 1.6144 22.6202 1.6144 23.0668Z" fill="#415DA1"/>
<path d="M36.4882 23.0668C36.4882 23.5121 36.1268 23.8749 35.6817 23.8749C35.2365 23.8749 34.8738 23.5135 34.8738 23.0668C34.8738 22.6202 35.2351 22.2588 35.6817 22.2588C36.1282 22.2588 36.4882 22.6202 36.4882 23.0668Z" fill="#415DA1"/>
<path d="M6.70766 35.4135C6.70766 35.8602 6.34631 36.2216 5.89977 36.2216C5.45324 36.2216 5.09326 35.8602 5.09326 35.4135C5.09326 34.9669 5.45461 34.6055 5.89977 34.6055C6.34493 34.6055 6.70766 34.9669 6.70766 35.4135Z" fill="#415DA1"/>
<path d="M6.72133 10.7344C6.72133 11.1811 6.35998 11.5425 5.91345 11.5425C5.46691 11.5425 5.10693 11.1811 5.10693 10.7344C5.10693 10.2878 5.46828 9.92773 5.91345 9.92773C6.35861 9.92773 6.72133 10.2892 6.72133 10.7344Z" fill="#415DA1"/>
<path d="M31.3812 35.3995C31.3812 35.8461 31.0199 36.2075 30.5747 36.2075C30.1296 36.2075 29.7668 35.8461 29.7668 35.3995C29.7668 34.9528 30.1282 34.5928 30.5747 34.5928C31.0213 34.5928 31.3812 34.9542 31.3812 35.3995Z" fill="#415DA1"/>
<path d="M3.93373 14.3374C3.93373 14.7826 3.57238 15.144 3.12585 15.144C2.67931 15.144 2.31934 14.7826 2.31934 14.3374C2.31934 13.8921 2.68069 13.5293 3.12585 13.5293C3.57101 13.5293 3.93373 13.8907 3.93373 14.3374Z" fill="#415DA1"/>
<path d="M34.1676 31.7973C34.1676 32.2439 33.8063 32.6054 33.3611 32.6054C32.9159 32.6054 32.5532 32.2439 32.5532 31.7973C32.5532 31.3507 32.9146 30.9893 33.3611 30.9893C33.8076 30.9893 34.1676 31.3507 34.1676 31.7973Z" fill="#415DA1"/>
<path d="M10.3322 38.1709C10.3322 38.6176 9.97082 38.979 9.52566 38.979C9.0805 38.979 8.71777 38.6176 8.71777 38.1709C8.71777 37.7243 9.07912 37.3643 9.52566 37.3643C9.97219 37.3643 10.3322 37.7257 10.3322 38.1709Z" fill="#415DA1"/>
<path d="M14.5324 6.20219C14.5324 6.64882 14.171 7.01025 13.7259 7.01025C13.2807 7.01025 12.918 6.64882 12.918 6.20219C12.918 5.75556 13.2793 5.39551 13.7259 5.39551C14.1724 5.39551 14.5324 5.75694 14.5324 6.20219Z" fill="#415DA1"/>
<path d="M23.5687 39.9317C23.5687 40.3783 23.2074 40.7397 22.7609 40.7397C22.3143 40.7397 21.9543 40.3783 21.9543 39.9317C21.9543 39.4851 22.3157 39.125 22.7609 39.125C23.206 39.125 23.5687 39.4864 23.5687 39.9317Z" fill="#415DA1"/>
<path d="M2.2079 27.5811C2.2079 28.0264 1.84655 28.3878 1.40002 28.3878C0.953482 28.3878 0.593506 28.0264 0.593506 27.5811C0.593506 27.1358 0.954856 26.7744 1.40002 26.7744C1.84518 26.7744 2.2079 27.1358 2.2079 27.5811Z" fill="#415DA1"/>
<path d="M35.8933 18.5522C35.8933 18.9975 35.5319 19.3603 35.0868 19.3603C34.6416 19.3603 34.2803 18.9988 34.2803 18.5522C34.2803 18.1056 34.6416 17.7441 35.0868 17.7441C35.5319 17.7441 35.8933 18.1056 35.8933 18.5522Z" fill="#415DA1"/>
<path d="M3.93373 31.7973C3.93373 32.2439 3.57238 32.6054 3.12585 32.6054C2.67931 32.6054 2.31934 32.2439 2.31934 31.7973C2.31934 31.3507 2.68069 30.9893 3.12585 30.9893C3.57101 30.9893 3.93373 31.3507 3.93373 31.7973Z" fill="#415DA1"/>
<path d="M27.769 38.1709C27.769 38.6176 27.4077 38.979 26.9625 38.979C26.5174 38.979 26.156 38.6176 26.156 38.1709C26.156 37.7243 26.5174 37.3643 26.9625 37.3643C27.4077 37.3643 27.769 37.7257 27.769 38.1709Z" fill="#415DA1"/>
<path d="M10.3322 7.96196C10.3322 8.40859 9.97082 8.76864 9.52566 8.76864C9.0805 8.76864 8.71777 8.40722 8.71777 7.96196C8.71777 7.5167 9.07912 7.15527 9.52566 7.15527C9.97219 7.15527 10.3322 7.5167 10.3322 7.96196Z" fill="#415DA1"/>
<path d="M23.5687 6.20219C23.5687 6.64882 23.2074 7.01025 22.7609 7.01025C22.3143 7.01025 21.9543 6.64882 21.9543 6.20219C21.9543 5.75556 22.3157 5.39551 22.7609 5.39551C23.206 5.39551 23.5687 5.75694 23.5687 6.20219Z" fill="#415DA1"/>
<path d="M14.5324 39.9317C14.5324 40.3783 14.171 40.7397 13.7259 40.7397C13.2807 40.7397 12.918 40.3783 12.918 39.9317C12.918 39.4851 13.2793 39.125 13.7259 39.125C14.1724 39.125 14.5324 39.4864 14.5324 39.9317Z" fill="#415DA1"/>
<path d="M35.8933 27.5811C35.8933 28.0264 35.5319 28.3878 35.0868 28.3878C34.6416 28.3878 34.2803 28.0264 34.2803 27.5811C34.2803 27.1358 34.6416 26.7744 35.0868 26.7744C35.5319 26.7744 35.8933 27.1358 35.8933 27.5811Z" fill="#415DA1"/>
<path d="M2.2079 18.5522C2.2079 18.9975 1.84655 19.3603 1.40002 19.3603C0.953482 19.3603 0.593506 18.9988 0.593506 18.5522C0.593506 18.1056 0.954856 17.7441 1.40002 17.7441C1.84518 17.7441 2.2079 18.1056 2.2079 18.5522Z" fill="#415DA1"/>
</g>
<defs>
<clipPath id="clip0_850_741">
<rect width="46" height="41.3333" fill="white"/>
</clipPath>
</defs>
</svg>
