<svg width="18" height="18" viewBox="0 0 18 18" fill="none" xmlns="http://www.w3.org/2000/svg">
<g clip-path="url(#clip0_604_1788)">
<path d="M9 0C4.04437 0 0 4.04484 0 9C0 13.9552 4.04484 18 9 18C13.9552 18 18 13.9552 18 9C18 4.04484 13.9552 0 9 0ZM9 16.9453C4.61906 16.9453 1.05469 13.3809 1.05469 9C1.05469 4.61906 4.61906 1.05469 9 1.05469C13.3809 1.05469 16.9453 4.61906 16.9453 9C16.9453 13.3809 13.3809 16.9453 9 16.9453Z" fill="white"/>
<path d="M5.05273 13.4746C5.05273 13.7657 4.81648 14.002 4.52539 14.002C4.2343 14.002 3.99805 13.7657 3.99805 13.4746C3.99805 13.1835 4.2343 12.9473 4.52539 12.9473C4.81648 12.9473 5.05273 13.1835 5.05273 13.4746Z" fill="white"/>
<path d="M14.002 4.52539C14.002 4.81648 13.7657 5.05273 13.4746 5.05273C13.1835 5.05273 12.9473 4.81648 12.9473 4.52539C12.9473 4.2343 13.183 3.99805 13.4746 3.99805C13.7662 3.99805 14.002 4.2343 14.002 4.52539Z" fill="white"/>
<path d="M4.15263 4.15238C3.94685 4.35816 3.94685 4.69238 4.15263 4.89816C4.35841 5.10395 4.69263 5.10395 4.89841 4.89816C5.10419 4.69238 5.10419 4.35816 4.89841 4.15238C4.69263 3.9466 4.35841 3.9466 4.15263 4.15238Z" fill="white"/>
<path d="M13.1016 13.1016C12.8958 13.3074 12.8958 13.6416 13.1016 13.8474C13.3074 14.0532 13.6416 14.0532 13.8474 13.8474C14.0536 13.6416 14.0536 13.3074 13.8474 13.1016C13.6416 12.8958 13.3074 12.8958 13.1016 13.1016Z" fill="white"/>
<path d="M9 4.25391C9.29109 4.25391 9.52734 4.01766 9.52734 3.72656V2.67188C9.52734 2.38078 9.29156 2.14453 9 2.14453C8.70844 2.14453 8.47266 2.38078 8.47266 2.67188V3.72656C8.47266 4.01766 8.70844 4.25391 9 4.25391Z" fill="white"/>
<path d="M9 13.7461C8.70844 13.7461 8.47266 13.9823 8.47266 14.2734V15.3281C8.47266 15.6192 8.70844 15.8555 9 15.8555C9.29156 15.8555 9.52734 15.6192 9.52734 15.3281V14.2734C9.52734 13.9823 9.29156 13.7461 9 13.7461Z" fill="white"/>
<path d="M4.25391 9C4.25391 8.70844 4.01766 8.47266 3.72656 8.47266H2.67188C2.38031 8.47266 2.14453 8.70844 2.14453 9C2.14453 9.29156 2.38031 9.52734 2.67188 9.52734H3.72656C4.01766 9.52734 4.25391 9.29109 4.25391 9Z" fill="white"/>
<path d="M13.7461 9C13.7461 9.29109 13.9823 9.52734 14.2734 9.52734H15.3281C15.6192 9.52734 15.8555 9.29109 15.8555 9C15.8555 8.70891 15.6192 8.47266 15.3281 8.47266H14.2734C13.9823 8.47266 13.7461 8.70844 13.7461 9Z" fill="white"/>
<path d="M9.52734 8.78156V5.83594C9.52734 5.54484 9.29156 5.30859 9 5.30859C8.70844 5.30859 8.47266 5.54484 8.47266 5.83594V9C8.47266 9.13969 8.52844 9.27375 8.62734 9.37313L11.7914 12.5372C11.9972 12.743 12.3314 12.743 12.5372 12.5372C12.743 12.3314 12.743 11.9972 12.5372 11.7914L9.52734 8.78156Z" fill="white"/>
</g>
<defs>
<clipPath id="clip0_604_1788">
<rect width="18" height="18" fill="white"/>
</clipPath>
</defs>
</svg>
