<svg width="40" height="40" viewBox="0 0 40 40" fill="none" xmlns="http://www.w3.org/2000/svg">
<g clip-path="url(#clip0_604_1591)">
<path d="M19.9997 0C8.97198 0 0 8.97198 0 19.9997C0 31.0273 8.97198 39.9993 19.9997 39.9993C31.0273 39.9993 39.9993 31.0273 39.9993 19.9997C39.9993 8.97198 31.028 0 19.9997 0ZM19.9997 37.8376C15.1007 37.8376 10.6566 35.8516 7.42898 32.6436C6.14059 31.3622 5.04613 29.8854 4.19441 28.2622C2.89695 25.7901 2.16243 22.9803 2.16243 20.0003C2.16243 10.1648 10.1641 2.16243 19.9997 2.16243C24.6649 2.16243 28.9172 3.96282 32.0988 6.90581C33.7492 8.43067 35.1108 10.2632 36.0937 12.3105C37.2112 14.6396 37.8376 17.2485 37.8376 19.9997C37.8376 29.8352 29.8359 37.8369 19.9997 37.8369V37.8376Z" fill="#415DA1"/>
<path d="M15.6301 15.5413C15.6301 16.7349 14.6619 17.7031 13.4683 17.7031C12.2748 17.7031 11.3059 16.7349 11.3059 15.5413C11.3059 14.3478 12.2741 13.3789 13.4683 13.3789C14.6626 13.3789 15.6301 14.3471 15.6301 15.5413Z" fill="#415DA1"/>
<path d="M29.0092 15.5413C29.0092 16.7349 28.041 17.7031 26.8468 17.7031C25.6525 17.7031 24.6843 16.7349 24.6843 15.5413C24.6843 14.3478 25.6525 13.3789 26.8468 13.3789C28.041 13.3789 29.0092 14.3471 29.0092 15.5413Z" fill="#415DA1"/>
<path d="M19.9614 31.0805C24.1439 31.0805 28.1535 28.9411 30.4485 25.3891L28.6327 24.2158C26.5254 27.4776 22.67 29.2975 18.809 28.8518C15.8005 28.5044 13.0186 26.7717 11.3675 24.2158L9.55176 25.3891C11.5503 28.4821 14.9181 30.5796 18.5621 30.9996C19.0302 31.0533 19.4961 31.0798 19.9621 31.0798L19.9614 31.0805Z" fill="#415DA1"/>
</g>
<defs>
<clipPath id="clip0_604_1591">
<rect width="40" height="40" fill="white"/>
</clipPath>
</defs>
</svg>
