<svg width="70" height="71" viewBox="0 0 70 71" fill="none" xmlns="http://www.w3.org/2000/svg">
<g clip-path="url(#clip0_1030_596)">
<path d="M69.5991 59.53L58.7396 28.0429V9.03396C59.9817 9.03396 60.998 8.01764 60.998 6.77547V2.25849C60.998 1.01632 59.9817 0 58.7396 0H38.4131C37.171 0 36.1547 1.01632 36.1547 2.25849V6.77547C36.1547 8.01764 37.171 9.03396 38.4131 9.03396V28.0429L36.3993 33.8773H22.9613L20.1758 24.147C22.9237 22.9048 24.8434 20.1382 24.8434 16.9387C24.8434 15.4518 24.4293 14.0591 23.6953 12.8734L26.7066 10.4267C27.4595 10.9725 28.3629 11.3113 29.3604 11.3113C31.8447 11.3113 33.8773 9.27863 33.8773 6.79429C33.8773 4.30995 31.8447 2.27731 29.3604 2.27731C26.876 2.27731 24.8434 4.30995 24.8434 6.79429C24.8434 7.47184 24.994 8.11174 25.2763 8.67636L22.2649 11.1231C20.8534 9.82443 18.9901 9.03396 16.9387 9.03396C15.1695 9.03396 13.5321 9.63622 12.2147 10.6149L8.39405 6.79429C8.78929 6.11674 9.03396 5.34509 9.03396 4.51698C9.03396 2.03264 7.00132 0 4.51698 0C2.03264 0 0 2.03264 0 4.51698C0 7.00132 2.03264 9.03396 4.51698 9.03396C5.34509 9.03396 6.11674 8.78929 6.79429 8.39405L10.6149 12.2147C9.6174 13.5321 9.03396 15.1695 9.03396 16.9387C9.03396 18.4255 9.44802 19.8182 10.182 21.004L7.18953 23.4506C6.4367 22.9048 5.5333 22.5661 4.5358 22.5661C2.05146 22.5661 0.0188207 24.5987 0.0188207 27.0831C0.0188207 29.5674 2.05146 31.6 4.5358 31.6C7.02014 31.6 9.05278 29.5674 9.05278 27.0831C9.05278 26.4055 8.90221 25.7656 8.6199 25.201L11.6124 22.7543C13.024 24.0529 14.8872 24.8434 16.9387 24.8434C17.2963 24.8434 17.6539 24.8057 17.9926 24.7681L20.5899 33.8773H7.88589C6.02264 33.8773 4.49816 35.4018 4.49816 37.2651C4.49816 38.319 5.00632 39.3354 5.85325 39.9753C7.82943 41.4621 9.01514 43.8335 9.01514 46.299V64.367C9.01514 67.4724 11.5559 70.0132 14.6614 70.0132H62.0896C66.4372 70.0132 69.9944 66.4749 69.9944 62.1085C70.032 61.2427 69.8814 60.377 69.5991 59.53ZM29.3792 4.51698C30.6214 4.51698 31.6377 5.5333 31.6377 6.77547C31.6377 8.01764 30.6214 9.03396 29.3792 9.03396C28.137 9.03396 27.1207 8.01764 27.1207 6.77547C27.1207 5.5333 28.1182 4.51698 29.3792 4.51698ZM4.5358 6.77547C3.29363 6.77547 2.27731 5.75915 2.27731 4.51698C2.27731 3.27481 3.29363 2.25849 4.5358 2.25849C5.77797 2.25849 6.79429 3.27481 6.79429 4.51698C6.79429 5.75915 5.77797 6.77547 4.5358 6.77547ZM4.5358 29.3604C3.29363 29.3604 2.27731 28.344 2.27731 27.1019C2.27731 25.8597 3.29363 24.8434 4.5358 24.8434C5.77797 24.8434 6.79429 25.8597 6.79429 27.1019C6.79429 28.344 5.77797 29.3604 4.5358 29.3604ZM11.3113 16.9387C11.3113 13.8332 13.8521 11.2924 16.9575 11.2924C20.0629 11.2924 22.6037 13.8332 22.6037 16.9387C22.6037 20.0441 20.0629 22.5849 16.9575 22.5849C13.8521 22.5849 11.3113 20.0441 11.3113 16.9387ZM58.7396 2.25849V6.77547H38.4131V2.25849M56.4811 9.03396V13.5509H47.4471V15.8094H56.4811V18.0679H49.7056V20.3264H56.4811V22.5849H47.4471V24.8434H56.4811V27.1019H49.7056V29.3604H56.801L61.4121 42.7419C60.5463 42.5537 59.9253 42.2526 59.2289 41.9138C58.062 41.3304 56.7257 40.6716 54.2038 40.6716C51.6818 40.6716 50.3455 41.3304 49.1786 41.9138C48.087 42.4596 47.1648 42.9301 45.1698 42.9301C43.1748 42.9301 42.2526 42.4596 41.161 41.9138C40.9916 41.8385 40.8222 41.7632 40.6528 41.688V37.2651C40.6528 35.8912 39.8247 34.7243 38.6578 34.1785L40.6528 28.4193V9.03396H56.4811ZM37.2839 36.1358C37.905 36.1358 38.4131 36.644 38.4131 37.2651V38.3943H24.2599L23.62 36.1358H37.2839ZM7.92353 36.1358H21.2674L21.9074 38.3943H7.50948C7.41537 38.319 7.34009 38.2438 7.24599 38.1685C6.96368 37.9614 6.79429 37.6227 6.79429 37.2651C6.79429 36.644 7.28363 36.1358 7.92353 36.1358ZM38.4131 64.367C38.4131 66.2302 36.8887 67.7547 35.0254 67.7547H14.699C12.8357 67.7547 11.3113 66.2302 11.3113 64.367V46.299C11.3113 44.2664 10.6902 42.309 9.57976 40.6528H22.5473L23.3754 43.57C21.5686 44.5111 20.3264 46.3743 20.3264 48.5575C20.3264 49.7056 20.684 50.7784 21.2674 51.6629L18.3879 54.5425C17.955 54.3355 17.4657 54.2038 16.9387 54.2038C15.0754 54.2038 13.5509 55.7282 13.5509 57.5915C13.5509 59.4547 15.0754 60.9792 16.9387 60.9792C18.8019 60.9792 20.3264 59.4547 20.3264 57.5915C20.3264 57.0645 20.1947 56.5752 19.9876 56.1423L22.8672 53.2627C23.7518 53.8462 24.8246 54.2038 25.9726 54.2038C26.4808 54.2038 26.9513 54.1096 27.4218 53.9967L30.3014 59.7747C29.718 60.377 29.3415 61.2051 29.3415 62.1273C29.3415 63.9905 30.866 65.515 32.7293 65.515C34.5925 65.515 36.117 63.9905 36.117 62.1273C36.117 60.264 34.5925 58.7396 32.7293 58.7396C32.5787 58.7396 32.447 58.7584 32.3152 58.7772L29.4168 52.9992C30.7343 51.9641 31.6 50.3831 31.6 48.5763C31.6 45.4709 29.0592 42.9301 25.9538 42.9301C25.8032 42.9301 25.6715 42.9678 25.5209 42.9678L24.8622 40.6716H38.3755V64.367H38.4131ZM25.9915 51.9453C24.1282 51.9453 22.6037 50.4208 22.6037 48.5575C22.6037 46.6943 24.1282 45.1698 25.9915 45.1698C27.8547 45.1698 29.3792 46.6943 29.3792 48.5575C29.3792 50.4208 27.8547 51.9453 25.9915 51.9453ZM18.0867 57.5915C18.0867 58.2126 17.5786 58.7207 16.9575 58.7207C16.3364 58.7207 15.8282 58.2126 15.8282 57.5915C15.8282 56.9704 16.3364 56.4622 16.9575 56.4622C17.5786 56.4622 18.0867 56.9704 18.0867 57.5915ZM33.8962 62.1085C33.8962 62.7295 33.388 63.2377 32.7669 63.2377C32.1458 63.2377 31.6377 62.7295 31.6377 62.1085C31.6377 61.4874 32.1458 60.9792 32.7669 60.9792C33.388 60.9792 33.8962 61.4874 33.8962 62.1085ZM62.1273 67.7547H39.5424C40.2576 66.8137 40.6716 65.6279 40.6716 64.367V64.3293C41.6127 65.0445 42.7796 65.4962 44.0594 65.4962C47.1648 65.4962 49.7056 62.9554 49.7056 59.85C49.7056 56.7445 47.1648 54.2038 44.0594 54.2038C42.7796 54.2038 41.6127 54.6366 40.6716 55.3706V44.1723C41.7256 44.6805 43.0242 45.1698 45.1886 45.1698C47.7106 45.1698 49.0469 44.5111 50.2138 43.9276C51.3054 43.3818 52.2276 42.9113 54.2226 42.9113C56.2176 42.9113 57.1586 43.3818 58.2314 43.9276C59.2289 44.4358 60.3581 44.9816 62.2402 45.1321L67.4724 60.2828C67.6794 60.8663 67.7735 61.4874 67.7735 62.1273C67.7735 65.2327 65.2327 67.7547 62.1273 67.7547ZM40.6716 59.85C40.6716 57.9867 42.1961 56.4622 44.0594 56.4622C45.9226 56.4622 47.4471 57.9867 47.4471 59.85C47.4471 61.7132 45.9226 63.2377 44.0594 63.2377C42.1961 63.2377 40.6716 61.7132 40.6716 59.85Z" fill="#415DA1"/>
<path d="M56.4811 50.8158C56.4811 51.4369 55.973 51.945 55.3519 51.945C54.7308 51.945 54.2227 51.4369 54.2227 50.8158C54.2227 50.1947 54.7308 49.6865 55.3519 49.6865C55.973 49.6865 56.4811 50.1947 56.4811 50.8158Z" fill="#415DA1"/>
<path d="M63.2565 64.3656C63.2565 64.9867 62.7484 65.4948 62.1273 65.4948C61.5062 65.4948 60.998 64.9867 60.998 64.3656C60.998 63.7445 61.5062 63.2363 62.1273 63.2363C62.7484 63.2363 63.2565 63.7445 63.2565 64.3656Z" fill="#415DA1"/>
<path d="M54.2224 62.1087C54.2224 62.7298 53.7142 63.238 53.0931 63.238C52.472 63.238 51.9639 62.7298 51.9639 62.1087C51.9639 61.4877 52.472 60.9795 53.0931 60.9795C53.7142 60.9795 54.2224 61.4877 54.2224 62.1087Z" fill="#415DA1"/>
<path d="M55.3523 45.1709C52.2469 45.1709 49.7061 47.7117 49.7061 50.8171C49.7061 53.9225 52.2469 56.4633 55.3523 56.4633C58.4577 56.4633 60.9985 53.9225 60.9985 50.8171C60.9985 47.7117 58.4577 45.1709 55.3523 45.1709ZM55.3523 54.2049C53.489 54.2049 51.9645 52.6804 51.9645 50.8171C51.9645 48.9539 53.489 47.4294 55.3523 47.4294C57.2155 47.4294 58.74 48.9539 58.74 50.8171C58.74 52.6804 57.2155 54.2049 55.3523 54.2049Z" fill="#415DA1"/>
<path d="M45.1887 59.8499C45.1887 60.471 44.6805 60.9792 44.0594 60.9792C43.4383 60.9792 42.9302 60.471 42.9302 59.8499C42.9302 59.2289 43.4383 58.7207 44.0594 58.7207C44.6805 58.7207 45.1887 59.2289 45.1887 59.8499Z" fill="#415DA1"/>
</g>
<defs>
<clipPath id="clip0_1030_596">
<rect width="70" height="70.0132" fill="white"/>
</clipPath>
</defs>
</svg>
