<svg width="80" height="72" viewBox="0 0 80 72" fill="none" xmlns="http://www.w3.org/2000/svg">
<g clip-path="url(#clip0_1030_578)">
<path d="M17.6019 35.3586C17.6019 34.6711 17.0392 34.1084 16.3517 34.1084H13.0388C12.3513 34.1084 11.7886 34.6711 11.7886 35.3586C11.7886 36.0462 12.3513 36.6089 13.0388 36.6089H16.3517C17.0392 36.6089 17.6019 36.0462 17.6019 35.3586Z" fill="#415DA1"/>
<path d="M71.9619 18.648C59.6899 6.8349 47.3336 13.6682 52.9183 24.9202C54.3971 27.8991 55.5436 30.2341 56.2733 32.2124H51.5853C50.0011 32.2124 48.7103 30.92 48.7103 29.3374V3.58366C48.7103 1.60373 47.1066 0 45.1266 0C43.1467 0 41.543 1.60373 41.543 3.58366V29.5239C41.543 31.8995 42.3975 34.087 43.7937 35.7961C42.3554 37.5458 41.543 39.7754 41.543 42.0683V68.0085C41.543 69.9884 43.1467 71.5922 45.1266 71.5922C47.1066 71.5922 48.7103 69.9884 48.7103 68.0085V42.2548C48.7103 40.6705 50.0027 39.3797 51.5853 39.3797H56.8149C56.356 40.63 55.5225 41.8802 54.3144 43.338C47.7309 51.1507 53.4599 66.5913 67.7751 60.945C82.3594 55.1738 84.0686 30.3168 71.9636 18.648H71.9619ZM44.0434 3.58366C44.0434 2.97882 44.5234 2.50046 45.1266 2.50046C45.7299 2.50046 46.2098 2.98044 46.2098 3.58366V29.3374C46.2098 32.2967 48.626 34.7129 51.5853 34.7129H57.0435C57.2105 35.4831 57.2932 36.1917 57.2932 36.8582C50.8345 36.8371 50.5005 37.0042 48.8546 36.3993C46.0623 35.3583 44.0418 32.6697 44.0418 29.5239V3.58366H44.0434ZM46.2098 42.2548V68.0085C46.2098 68.6133 45.7299 69.0917 45.1266 69.0917C44.5234 69.0917 44.0434 68.6117 44.0434 68.0085V42.0683C44.0434 40.3803 44.6061 38.8187 45.6277 37.5263C46.252 37.9852 46.9201 38.3598 47.6287 38.6517C46.732 39.5889 46.2115 40.8602 46.2115 42.2564L46.2098 42.2548ZM66.8572 58.6115C55.0231 63.2784 51.2724 50.8183 56.2311 44.9433C57.8559 43.0056 58.8775 41.2964 59.398 39.5678C60.3775 39.9213 61.8142 40.9429 62.1061 43.818C62.1693 44.5055 62.7725 45.005 63.4811 44.9433C64.1687 44.8801 64.6681 44.2558 64.6065 43.5683C64.1687 39.3587 61.7315 37.609 59.7937 37.0674C59.8359 35.8999 59.5229 34.3788 59.5229 34.3999C63.2736 33.1918 64.1282 29.3374 64.0228 27.2748C63.9806 26.5872 63.3984 26.0667 62.7109 26.0878C62.0234 26.1299 61.5028 26.7121 61.5239 27.4012C61.5239 27.4223 61.5661 28.5882 61.0861 29.7768C60.6272 30.9022 59.8991 31.6319 58.8143 31.9854C58.023 29.6941 56.7516 27.0477 55.1268 23.7965C50.6464 14.7741 60.4407 11.0445 70.1912 20.4415C81.1514 30.9849 79.546 53.5912 66.8572 58.6131V58.6115Z" fill="#415DA1"/>
<path d="M66.9415 34.1084H63.6286C62.9411 34.1084 62.3784 34.6711 62.3784 35.3586C62.3784 36.0462 62.9411 36.6089 63.6286 36.6089H66.9415C67.6291 36.6089 68.1917 36.0462 68.1917 35.3586C68.1917 34.6711 67.6291 34.1084 66.9415 34.1084Z" fill="#415DA1"/>
<path d="M34.8752 0C32.8953 0 31.2915 1.60373 31.2915 3.58366V29.3374C31.2915 30.9217 29.9991 32.2124 28.4165 32.2124C27.9576 32.2124 30.0413 32.2124 23.7285 32.2124C24.4793 30.2325 25.6031 27.8991 27.0836 24.9202C32.6682 13.6682 20.3119 6.8349 8.03988 18.648C-4.08781 30.3363 -2.33814 55.1933 12.2268 60.9239C26.5403 66.5702 32.271 51.1312 25.6874 43.3169C24.4793 41.8786 23.6458 40.6089 23.1869 39.3587H28.4165C30.0008 39.3587 31.2915 40.6511 31.2915 42.2337V67.9874C31.2915 69.9674 32.8953 71.5711 34.8752 71.5711C36.8551 71.5711 38.4589 69.9674 38.4589 67.9874V42.0472C38.4589 39.6716 37.6043 37.4841 36.2081 35.775C37.6464 34.0253 38.4589 31.7957 38.4589 29.5028V3.56258C38.4589 1.62481 36.834 0 34.8752 0ZM33.7709 29.3374V3.58366C33.7709 2.97882 34.2509 2.50046 34.8541 2.50046C35.4573 2.50046 35.9373 2.98044 35.9373 3.58366V29.5239C35.9373 31.2119 35.3746 32.7735 34.353 34.0659C33.7287 33.607 33.0607 33.2324 32.352 32.9405C33.2488 32.0032 33.7693 30.7319 33.7693 29.3358L33.7709 29.3374ZM13.1235 58.6115C0.413656 53.5895 -1.17061 30.9833 9.76847 20.4609C19.54 11.0639 29.3327 14.7725 24.8328 23.816C23.208 27.0656 21.9367 29.712 21.1454 32.0049C20.0833 31.6303 19.3325 30.9006 18.8736 29.7963C18.3936 28.6288 18.4357 27.4629 18.4357 27.4207C18.4779 26.7332 17.9363 26.1494 17.2488 26.1072C16.5612 26.0651 15.9775 26.6067 15.9369 27.2942C15.9369 27.4612 15.8737 28.9823 16.4996 30.6282C17.0412 32.0243 18.1455 33.6913 20.4368 34.421C20.2487 35.2966 20.1449 36.1917 20.166 37.0885C18.2282 37.6301 15.791 39.3797 15.3531 43.5893C15.2704 44.319 15.8526 44.9644 16.6034 44.9644C17.2277 44.9644 17.7709 44.4844 17.8536 43.8391C18.1455 40.964 19.5822 39.9424 20.5616 39.5889C21.0821 41.3175 22.1037 43.0267 23.7285 44.9433C28.6873 50.7777 25.0209 63.2995 13.1235 58.6115ZM35.96 68.0085C35.96 68.6133 35.48 69.0917 34.8768 69.0917C34.2736 69.0917 33.7936 68.6117 33.7936 68.0085V42.2548C33.7936 39.2954 31.3775 36.8793 28.4181 36.8793H22.7086C22.7086 36.2128 22.7913 35.5042 22.9583 34.734H28.6046C32.6472 34.734 35.9389 38.0257 35.9389 42.0683V68.0085H35.96Z" fill="#415DA1"/>
</g>
<defs>
<clipPath id="clip0_1030_578">
<rect width="80" height="71.5922" fill="white"/>
</clipPath>
</defs>
</svg>
