<svg width="50" height="41" viewBox="0 0 50 41" fill="none" xmlns="http://www.w3.org/2000/svg">
<g clip-path="url(#clip0_604_1584)">
<path d="M44.9785 18.7872H42.3837V16.1924C42.3837 15.653 41.9465 15.2158 41.4071 15.2158C40.8677 15.2158 40.4305 15.653 40.4305 16.1924V18.7872H37.8357C37.2963 18.7872 36.8591 19.2244 36.8591 19.7638C36.8591 20.3032 37.2963 20.7404 37.8357 20.7404H40.4305V23.3352C40.4305 23.8746 40.8677 24.3118 41.4071 24.3118C41.9465 24.3118 42.3837 23.8746 42.3837 23.3352V20.7404H44.9785C45.5179 20.7404 45.9551 20.3032 45.9551 19.7638C45.9551 19.2244 45.5179 18.7872 44.9785 18.7872Z" fill="#415DA1"/>
<path d="M44.599 11.785C43.6873 5.0438 38.0511 0 31.3622 0C27.9856 0 24.8269 1.25857 22.3629 3.56583C19.8996 1.25857 16.7409 0 13.3643 0C5.99506 0 0 6.13763 0 13.6827C0 15.1734 0.434838 16.8438 1.29976 18.6885H0.976603C0.437214 18.6885 0 19.1257 0 19.6651C0 20.2045 0.437214 20.6417 0.976603 20.6417H2.33973C4.16383 23.7299 7.0477 27.2411 10.981 31.1515C16.3108 36.4511 21.7157 40.5975 21.7696 40.6395C21.9447 40.7734 22.1538 40.8399 22.3629 40.8399C22.572 40.8399 22.7811 40.7734 22.9561 40.6395C22.9973 40.6078 27.131 37.438 31.7115 33.1189C32.1043 32.7491 32.1218 32.1305 31.7519 31.7384C31.382 31.3463 30.7642 31.3281 30.3713 31.698C26.8776 34.9922 23.6523 37.6036 22.3621 38.6237C20.8294 37.4111 16.5611 33.9482 12.3434 29.7527C8.96605 26.3936 6.38158 23.3323 4.63352 20.6417H13.3762C13.8118 20.6417 14.1944 20.3534 14.3148 19.9344L16.0209 13.9869L20.7463 29.1254C20.8738 29.5333 21.2516 29.8113 21.6785 29.8113C22.1054 29.8113 22.4832 29.5333 22.6108 29.1254L25.2277 20.7391H29.5872C30.1266 20.7391 30.5638 20.3019 30.5638 19.7625C30.5638 19.2232 30.1266 18.7859 29.5872 18.7859H24.5093C24.0824 18.7859 23.7046 19.0639 23.5771 19.4719L21.6785 25.5564L16.9143 10.292C16.786 9.88008 16.4034 9.60049 15.971 9.60603C15.5393 9.61078 15.1623 9.8983 15.0435 10.3133L12.6412 18.6885H3.4787C2.46883 16.7828 1.95321 15.1029 1.95321 13.6827C1.95321 7.21482 7.07225 1.95321 13.3643 1.95321C16.527 1.95321 19.4679 3.25297 21.6453 5.61329C21.8306 5.81368 22.0904 5.92773 22.3629 5.92773C22.6353 5.92773 22.8959 5.81368 23.0805 5.61329C25.2578 3.25297 28.1995 1.95321 31.3614 1.95321C36.8012 1.95321 41.4268 5.87625 42.5262 11.2424C42.1595 11.1941 41.7856 11.1695 41.4054 11.1695C36.6666 11.1695 32.8116 15.0245 32.8116 19.7633C32.8116 24.5022 36.6666 28.3571 41.4054 28.3571C46.1443 28.3571 49.9992 24.5022 49.9992 19.7633C49.9992 16.1524 47.7609 13.0546 44.5982 11.785H44.599ZM41.4062 26.4039C37.7445 26.4039 34.7656 23.425 34.7656 19.7633C34.7656 16.1017 37.7445 13.1228 41.4062 13.1228C45.0679 13.1228 48.0468 16.1017 48.0468 19.7633C48.0468 23.425 45.0679 26.4039 41.4062 26.4039Z" fill="#415DA1"/>
</g>
<defs>
<clipPath id="clip0_604_1584">
<rect width="50" height="40.8399" fill="white"/>
</clipPath>
</defs>
</svg>
