<svg width="44" height="44" viewBox="0 0 44 44" fill="none" xmlns="http://www.w3.org/2000/svg">
<g clip-path="url(#clip0_845_624)">
<path d="M38.4912 2.06135H29.7829C27.4791 0.752813 24.8176 0 21.9829 0C13.2574 0 6.158 7.09271 6.158 15.8125H1.38187C1.00116 15.8125 0.631908 15.9718 0.370454 16.2525C0.11244 16.5275 -0.0217272 16.8988 0.00350083 17.2723C0.145695 19.4368 0.608974 21.5268 1.34288 23.4988V42.625C1.34288 43.3835 1.95982 44 2.71896 44H41.2479C42.007 44 42.624 43.3835 42.624 42.625V23.4438C43.5161 21.0398 44.0001 18.4628 44.0001 15.8125C44.0001 11.008 42.4783 6.44302 39.5978 2.61135C39.3398 2.2676 38.9246 2.06135 38.4912 2.06135ZM38.4969 3.4375C38.8329 3.88552 39.1505 4.34385 39.4475 4.8125H33.3355C32.8596 4.32208 32.3527 3.8626 31.8172 3.4375H38.4969ZM31.3092 39.875H12.6565L17.6872 22H26.2774L31.3081 39.875H31.3092ZM33.8297 41.25L34.1737 42.625H9.79198L10.136 41.25H33.8297ZM27.603 21.6276C27.4367 21.0375 26.892 20.625 26.2785 20.625H17.6884C17.0737 20.625 16.5302 21.0375 16.3639 21.6276L15.904 23.2627C13.6691 21.442 12.3515 18.7275 12.3515 15.8125C12.3515 10.505 16.6724 6.1875 21.984 6.1875C27.2957 6.1875 31.6165 10.505 31.6165 15.8125C31.6165 17.9151 30.9503 19.9123 29.6912 21.5875C29.463 21.8911 29.5237 22.322 29.8276 22.55C30.1315 22.7769 30.5627 22.7161 30.7909 22.4125C32.2312 20.4978 32.9926 18.2142 32.9926 15.8114C32.9926 10.9736 29.846 6.86354 25.4941 5.39458C26.7498 4.76896 27.6672 3.81677 28.0169 2.7099C32.9754 4.99927 36.4328 10.0031 36.4328 15.8114C36.4328 20.9034 33.7747 25.5624 29.4458 28.1726L27.603 21.6276ZM26.7338 2.19313C26.3657 3.65406 24.3428 4.8125 21.9829 4.8125C19.6229 4.8125 17.6001 3.65406 17.232 2.19313C18.7227 1.67292 20.3167 1.375 21.9829 1.375C23.6491 1.375 25.243 1.67292 26.7338 2.19313ZM15.9499 2.71104C16.2997 3.81792 17.2171 4.76896 18.4727 5.39573C14.1209 6.86469 10.9743 10.9748 10.9743 15.8125C10.9743 19.3451 12.6577 22.6268 15.4993 24.6973L14.5211 28.1738C10.1922 25.5635 7.53407 20.9046 7.53407 15.8125C7.53407 10.0054 10.9915 5.00042 15.9499 2.71104ZM6.22451 17.1875C6.26464 17.6504 6.32656 18.1088 6.40684 18.5625H1.51833C1.4587 18.1088 1.41054 17.6493 1.38072 17.1875H6.22451ZM2.71896 26.5031C4.68904 30.0449 7.63957 33.0264 11.3309 35.0705C11.4364 35.129 11.5499 35.1565 11.6623 35.1565C11.9043 35.1565 12.1393 35.0281 12.2655 34.8013C12.4501 34.469 12.3297 34.0507 11.996 33.8674C6.63045 30.8974 2.93569 25.8122 1.75112 19.9375H6.70728C7.78864 23.9536 10.4284 27.4186 14.1369 29.5373L11.2265 39.875H9.59818C9.28283 39.875 9.00762 40.0893 8.93079 40.3964L8.37233 42.625H2.71781V26.5031H2.71896ZM41.2491 42.625H35.5945L35.0361 40.3964C34.9592 40.0893 34.684 39.875 34.3687 39.875H32.7403L31.5431 35.6217C35.7207 33.605 39.0794 30.3703 41.2491 26.4493V42.625ZM31.1636 34.2753L29.8311 29.5373C34.7632 26.7197 37.8089 21.5165 37.8089 15.8125C37.8089 12.1928 36.583 8.85615 34.5269 6.1875H40.2445C41.8075 9.13458 42.6251 12.4082 42.6251 15.8125C42.6251 23.65 38.1483 30.8023 31.1636 34.2753Z" fill="#415DA1"/>
<path d="M24.7349 23.375H19.2306C18.9026 23.375 18.6205 23.6065 18.5563 23.9273L17.8683 27.3648C17.8281 27.5676 17.8798 27.7761 18.0105 27.9354C18.1412 28.0947 18.3361 28.1864 18.5426 28.1864H25.4229C25.6293 28.1864 25.8243 28.0935 25.955 27.9354C26.0857 27.7761 26.1385 27.5665 26.0972 27.3648L25.4092 23.9273C25.345 23.6065 25.0629 23.375 24.7349 23.375ZM19.382 26.8125L19.7948 24.75H24.1707L24.5835 26.8125H19.382Z" fill="#415DA1"/>
<path d="M10.2862 13.75C10.2862 14.1293 9.97776 14.4375 9.59819 14.4375C9.21863 14.4375 8.91016 14.1293 8.91016 13.75C8.91016 13.3707 9.21863 13.0625 9.59819 13.0625C9.97776 13.0625 10.2862 13.3707 10.2862 13.75Z" fill="#415DA1"/>
<path d="M10.2862 16.5C10.2862 16.8793 9.97776 17.1875 9.59819 17.1875C9.21863 17.1875 8.91016 16.8793 8.91016 16.5C8.91016 16.1207 9.21863 15.8125 9.59819 15.8125C9.97776 15.8125 10.2862 16.1207 10.2862 16.5Z" fill="#415DA1"/>
<path d="M35.0555 13.75C35.0555 14.1293 34.747 14.4375 34.3675 14.4375C33.9879 14.4375 33.6794 14.1293 33.6794 13.75C33.6794 13.3707 33.9879 13.0625 34.3675 13.0625C34.747 13.0625 35.0555 13.3707 35.0555 13.75Z" fill="#415DA1"/>
<path d="M35.0555 16.5C35.0555 16.8793 34.747 17.1875 34.3675 17.1875C33.9879 17.1875 33.6794 16.8793 33.6794 16.5C33.6794 16.1207 33.9879 15.8125 34.3675 15.8125C34.747 15.8125 35.0555 16.1207 35.0555 16.5Z" fill="#415DA1"/>
</g>
<defs>
<clipPath id="clip0_845_624">
<rect width="44" height="44" fill="white"/>
</clipPath>
</defs>
</svg>
