<svg width="12" height="17" viewBox="0 0 12 17" fill="none" xmlns="http://www.w3.org/2000/svg">
<g clip-path="url(#clip0_604_1629)">
<path d="M5.58336 16.7006C5.67493 16.8391 5.83289 16.9208 6 16.9208C6.16711 16.9208 6.32278 16.8391 6.41664 16.7006C7.60015 14.9413 9.34224 12.7667 10.5578 10.5579C11.5284 8.78956 12 7.28226 12 5.94975C12 2.66956 9.3079 0 6 0C2.6921 0 0 2.66956 0 5.94975C0 7.28226 0.471576 8.78956 1.4422 10.5579C2.65548 12.7667 4.40214 14.9459 5.58336 16.7006ZM6 0.992003C8.7562 0.992003 10.9996 3.21663 10.9996 5.94975C10.9996 7.11427 10.567 8.46494 9.67875 10.0835C8.63258 11.988 7.13773 13.9221 6 15.5474C4.86227 13.9221 3.36971 11.9903 2.32125 10.0835C1.43304 8.46494 1.00038 7.112 1.00038 5.94975C1.00038 3.21663 3.2438 0.992003 6 0.992003Z" fill="white"/>
<path d="M6.00008 8.92307C7.65517 8.92307 8.99893 7.58829 8.99893 5.94933C8.99893 4.31036 7.65288 2.97559 6.00008 2.97559C4.34727 2.97559 3.00122 4.31036 3.00122 5.94933C3.00122 7.58829 4.34727 8.92307 6.00008 8.92307ZM6.00008 3.96532C7.10347 3.96532 8.00084 4.85517 8.00084 5.94933C8.00084 7.04348 7.10347 7.93333 6.00008 7.93333C4.89668 7.93333 3.99931 7.04348 3.99931 5.94933C3.99931 4.85517 4.89668 3.96532 6.00008 3.96532Z" fill="white"/>
</g>
<defs>
<clipPath id="clip0_604_1629">
<rect width="12" height="16.9231" fill="white"/>
</clipPath>
</defs>
</svg>
