<svg width="26" height="26" viewBox="0 0 26 26" fill="none" xmlns="http://www.w3.org/2000/svg">
<g clip-path="url(#clip0_49_381)">
<path d="M13 0C5.82 0 0 5.82 0 13C0 19.518 4.801 24.899 11.057 25.839V16.445H7.84V13.028H11.057V10.754C11.057 6.989 12.891 5.337 16.02 5.337C17.518 5.337 18.311 5.448 18.686 5.499V8.482H16.552C15.224 8.482 14.76 9.741 14.76 11.161V13.029H18.653L18.125 16.446H14.76V25.868C21.105 25.006 26 19.581 26 13C26 5.82 20.18 0 13 0Z" fill="white"/>
</g>
<defs>
<clipPath id="clip0_49_381">
<rect width="26" height="26" fill="white"/>
</clipPath>
</defs>
</svg>
