<svg width="46" height="38" viewBox="0 0 46 38" fill="none" xmlns="http://www.w3.org/2000/svg">
<g clip-path="url(#clip0_845_657)">
<path d="M43.7934 5.92566L10.8471 0.0486783C9.40245 -0.21127 8.00089 0.798574 7.75052 2.23488L5.62781 14.4081H2.59708C1.16557 14.4081 0 15.5737 0 17.0052V35.2495C0 36.681 1.16438 37.8465 2.59708 37.8465H36.201C37.6338 37.8465 38.7981 36.681 38.7981 35.2495V28.8346C39.7601 29.0059 40.6896 29.2084 41.5797 28.6765C42.2469 28.2764 42.7261 27.5876 42.8603 26.8209L45.9581 9.04503C46.2132 7.58357 45.2417 6.18441 43.7922 5.92566H43.7934ZM9.21198 2.49003C9.32339 1.85274 9.94151 1.39394 10.586 1.50894L43.5335 7.38592C44.1804 7.50092 44.6128 8.13102 44.4978 8.78868L43.9863 11.7236L8.69927 5.42972L9.21198 2.49003ZM37.3151 35.2483C37.3151 35.8616 36.8156 36.3611 36.2022 36.3611H2.59708C1.98375 36.3611 1.48422 35.8616 1.48422 35.2483V17.0052C1.48422 16.3919 1.98375 15.8923 2.59708 15.8923H36.201C36.8156 15.8923 37.3139 16.3919 37.3139 17.0052V35.2495L37.3151 35.2483ZM41.4 26.5646C41.1688 27.8847 39.7038 27.4882 38.7993 27.3264V17.0052C38.7993 15.5737 37.6349 14.4081 36.2022 14.4081H7.13479L8.44411 6.89118L10.5932 7.27451L43.7299 13.185L41.3988 26.5646H41.4Z" fill="#415DA1"/>
<path d="M17.4799 33.3956H13.2141C12.8045 33.3956 12.4714 33.0625 12.4714 32.6529C12.4714 32.2432 12.8045 31.9102 13.2141 31.9102H17.4799C17.8896 31.9102 18.2214 32.2432 18.2214 32.6529C18.2214 33.0625 17.8896 33.3956 17.4799 33.3956Z" fill="#415DA1"/>
<path d="M9.37494 33.3956H5.10797C4.69828 33.3956 4.36646 33.0625 4.36646 32.6529C4.36646 32.2432 4.69828 31.9102 5.10797 31.9102H9.37375C9.78343 31.9102 10.1153 32.2432 10.1153 32.6529C10.1153 33.0625 9.78224 33.3956 9.37375 33.3956H9.37494Z" fill="#415DA1"/>
<path d="M25.584 33.3956H21.3182C20.9085 33.3956 20.5767 33.0625 20.5767 32.6529C20.5767 32.2432 20.9085 31.9102 21.3182 31.9102H25.584C25.9936 31.9102 26.3267 32.2432 26.3267 32.6529C26.3267 33.0625 25.9948 33.3956 25.584 33.3956Z" fill="#415DA1"/>
<path d="M33.6902 33.3956H29.4244C29.0147 33.3956 28.6829 33.0625 28.6829 32.6529C28.6829 32.2432 29.0147 31.9102 29.4244 31.9102H33.6902C34.0998 31.9102 34.4317 32.2432 34.4317 32.6529C34.4317 33.0625 34.0998 33.3956 33.6902 33.3956Z" fill="#415DA1"/>
<path d="M11.2915 29.5469H5.91761C4.89459 29.5469 4.06323 28.7143 4.06323 27.6925V25.5614C4.06323 24.5396 4.89578 23.707 5.91761 23.707H11.2915C12.3145 23.707 13.1458 24.5396 13.1458 25.5614V27.6925C13.1458 28.7155 12.3133 29.5469 11.2915 29.5469ZM5.91761 25.1901C5.71396 25.1901 5.54745 25.3566 5.54745 25.5602V27.6913C5.54745 27.8961 5.71396 28.0627 5.91761 28.0627H11.2915C11.4963 28.0627 11.6628 27.8961 11.6628 27.6913V25.5602C11.6628 25.3554 11.4963 25.1901 11.2915 25.1901H5.91761Z" fill="#415DA1"/>
</g>
<defs>
<clipPath id="clip0_845_657">
<rect width="46" height="37.8542" fill="white"/>
</clipPath>
</defs>
</svg>
